<mxfile host="65bd71144e">
    <diagram id="EV9_woZYGARVIciNquxP" name="Page-1">
        <mxGraphModel dx="1695" dy="2095" grid="0" gridSize="10" guides="1" tooltips="1" connect="1" arrows="1" fold="1" page="1" pageScale="1" pageWidth="850" pageHeight="1100" math="0" shadow="0">
            <root>
                <mxCell id="0"/>
                <mxCell id="1" parent="0"/>
                <mxCell id="138" value="Text" style="text;html=1;align=center;verticalAlign=middle;whiteSpace=wrap;rounded=0;" parent="1" vertex="1">
                    <mxGeometry x="1140" y="520" width="60" height="30" as="geometry"/>
                </mxCell>
                <mxCell id="173" value="" style="whiteSpace=wrap;html=1;aspect=fixed;fillColor=#dae8fc;strokeColor=#6c8ebf;" vertex="1" parent="1">
                    <mxGeometry x="893" y="73" width="1773" height="1773" as="geometry"/>
                </mxCell>
                <mxCell id="174" value="" style="rounded=0;whiteSpace=wrap;html=1;fillColor=#fad9d5;strokeColor=#ae4132;" vertex="1" parent="1">
                    <mxGeometry x="1060" y="363" width="1470" height="1320" as="geometry"/>
                </mxCell>
                <mxCell id="175" value="" style="rounded=1;whiteSpace=wrap;html=1;textShadow=1;fillColor=#fff2cc;strokeColor=#d6b656;" vertex="1" parent="1">
                    <mxGeometry x="1250" y="523" width="1030" height="410" as="geometry"/>
                </mxCell>
                <mxCell id="176" style="edgeStyle=none;html=1;exitX=1;exitY=0.5;exitDx=0;exitDy=0;entryX=0;entryY=0.5;entryDx=0;entryDy=0;" edge="1" parent="1" source="177" target="179">
                    <mxGeometry relative="1" as="geometry"/>
                </mxCell>
                <mxCell id="177" value="" style="shape=process;whiteSpace=wrap;html=1;backgroundOutline=1;" vertex="1" parent="1">
                    <mxGeometry x="1310" y="753" width="140" height="60" as="geometry"/>
                </mxCell>
                <mxCell id="178" style="edgeStyle=none;html=1;exitX=1;exitY=0.5;exitDx=0;exitDy=0;entryX=0;entryY=0.5;entryDx=0;entryDy=0;" edge="1" parent="1" source="179" target="181">
                    <mxGeometry relative="1" as="geometry"/>
                </mxCell>
                <mxCell id="179" value="" style="shape=process;whiteSpace=wrap;html=1;backgroundOutline=1;" vertex="1" parent="1">
                    <mxGeometry x="1480" y="753" width="120" height="60" as="geometry"/>
                </mxCell>
                <mxCell id="180" style="edgeStyle=none;html=1;exitX=1;exitY=0.5;exitDx=0;exitDy=0;entryX=0;entryY=0.5;entryDx=0;entryDy=0;" edge="1" parent="1" source="181" target="183">
                    <mxGeometry relative="1" as="geometry"/>
                </mxCell>
                <mxCell id="181" value="" style="shape=process;whiteSpace=wrap;html=1;backgroundOutline=1;" vertex="1" parent="1">
                    <mxGeometry x="1630" y="753" width="120" height="60" as="geometry"/>
                </mxCell>
                <mxCell id="182" style="edgeStyle=none;html=1;exitX=1;exitY=0.5;exitDx=0;exitDy=0;entryX=0;entryY=0.5;entryDx=0;entryDy=0;" edge="1" parent="1" source="183" target="185">
                    <mxGeometry relative="1" as="geometry"/>
                </mxCell>
                <mxCell id="183" value="" style="shape=process;whiteSpace=wrap;html=1;backgroundOutline=1;" vertex="1" parent="1">
                    <mxGeometry x="1780" y="753" width="120" height="60" as="geometry"/>
                </mxCell>
                <mxCell id="184" style="edgeStyle=none;html=1;exitX=1;exitY=0.5;exitDx=0;exitDy=0;entryX=0;entryY=0.5;entryDx=0;entryDy=0;" edge="1" parent="1" source="185" target="186">
                    <mxGeometry relative="1" as="geometry"/>
                </mxCell>
                <mxCell id="185" value="" style="shape=process;whiteSpace=wrap;html=1;backgroundOutline=1;" vertex="1" parent="1">
                    <mxGeometry x="1930" y="753" width="120" height="60" as="geometry"/>
                </mxCell>
                <mxCell id="186" value="" style="shape=process;whiteSpace=wrap;html=1;backgroundOutline=1;" vertex="1" parent="1">
                    <mxGeometry x="2080" y="753" width="150" height="60" as="geometry"/>
                </mxCell>
                <mxCell id="187" value="&lt;b&gt;&lt;font style=&quot;font-size: 13px;&quot;&gt;Install_libraries&lt;/font&gt;&lt;/b&gt;" style="text;html=1;align=center;verticalAlign=middle;whiteSpace=wrap;rounded=0;" vertex="1" parent="1">
                    <mxGeometry x="1350" y="768" width="60" height="30" as="geometry"/>
                </mxCell>
                <mxCell id="188" value="&lt;b&gt;&lt;font style=&quot;font-size: 14px;&quot;&gt;Load_data&lt;/font&gt;&lt;/b&gt;" style="text;html=1;align=center;verticalAlign=middle;whiteSpace=wrap;rounded=0;" vertex="1" parent="1">
                    <mxGeometry x="1510" y="768" width="60" height="30" as="geometry"/>
                </mxCell>
                <mxCell id="189" value="&lt;font style=&quot;font-size: 14px;&quot;&gt;Clean_Data&lt;/font&gt;" style="text;html=1;align=center;verticalAlign=middle;whiteSpace=wrap;rounded=0;fontStyle=1" vertex="1" parent="1">
                    <mxGeometry x="1660" y="768" width="60" height="30" as="geometry"/>
                </mxCell>
                <mxCell id="190" value="&lt;b&gt;&lt;font style=&quot;font-size: 14px;&quot;&gt;Prepare_data&lt;/font&gt;&lt;/b&gt;" style="text;html=1;align=center;verticalAlign=middle;whiteSpace=wrap;rounded=0;" vertex="1" parent="1">
                    <mxGeometry x="1810" y="768" width="60" height="30" as="geometry"/>
                </mxCell>
                <mxCell id="191" value="&lt;font style=&quot;font-size: 14px;&quot;&gt;Train_models&lt;/font&gt;" style="text;html=1;align=center;verticalAlign=middle;whiteSpace=wrap;rounded=0;fontStyle=1" vertex="1" parent="1">
                    <mxGeometry x="1960" y="768" width="60" height="30" as="geometry"/>
                </mxCell>
                <mxCell id="192" value="&lt;b&gt;&lt;font style=&quot;font-size: 14px;&quot;&gt;Evaluate_models&lt;/font&gt;&lt;/b&gt;" style="text;html=1;align=center;verticalAlign=middle;whiteSpace=wrap;rounded=0;" vertex="1" parent="1">
                    <mxGeometry x="2125" y="768" width="60" height="30" as="geometry"/>
                </mxCell>
                <mxCell id="193" style="edgeStyle=none;html=1;exitX=0.25;exitY=1;exitDx=0;exitDy=0;entryX=0.5;entryY=0;entryDx=0;entryDy=0;" edge="1" parent="1" source="198" target="177">
                    <mxGeometry relative="1" as="geometry"/>
                </mxCell>
                <mxCell id="194" style="edgeStyle=none;html=1;exitX=0.5;exitY=1;exitDx=0;exitDy=0;" edge="1" parent="1" source="198">
                    <mxGeometry relative="1" as="geometry">
                        <mxPoint x="1690" y="753" as="targetPoint"/>
                    </mxGeometry>
                </mxCell>
                <mxCell id="195" style="edgeStyle=none;html=1;exitX=0.5;exitY=1;exitDx=0;exitDy=0;entryX=0.5;entryY=0;entryDx=0;entryDy=0;" edge="1" parent="1" source="198" target="183">
                    <mxGeometry relative="1" as="geometry"/>
                </mxCell>
                <mxCell id="196" style="edgeStyle=none;html=1;exitX=0.75;exitY=1;exitDx=0;exitDy=0;entryX=0.5;entryY=0;entryDx=0;entryDy=0;" edge="1" parent="1" source="198" target="185">
                    <mxGeometry relative="1" as="geometry"/>
                </mxCell>
                <mxCell id="197" style="edgeStyle=none;html=1;exitX=0.75;exitY=1;exitDx=0;exitDy=0;entryX=0.5;entryY=0;entryDx=0;entryDy=0;" edge="1" parent="1" source="198" target="186">
                    <mxGeometry relative="1" as="geometry"/>
                </mxCell>
                <mxCell id="198" value="" style="shape=process;whiteSpace=wrap;html=1;backgroundOutline=1;labelBorderColor=light-dark(#26d96b, #ededed);labelBackgroundColor=light-dark(#7c9424, #ededed);" vertex="1" parent="1">
                    <mxGeometry x="1580" y="573" width="340" height="70" as="geometry"/>
                </mxCell>
                <mxCell id="199" style="edgeStyle=none;html=1;exitX=0.25;exitY=1;exitDx=0;exitDy=0;entryX=0.581;entryY=0.048;entryDx=0;entryDy=0;entryPerimeter=0;" edge="1" parent="1" source="198" target="179">
                    <mxGeometry relative="1" as="geometry"/>
                </mxCell>
                <mxCell id="200" value="Apache Airflow" style="text;html=1;align=center;verticalAlign=middle;whiteSpace=wrap;rounded=0;fontStyle=1;fontSize=18;" vertex="1" parent="1">
                    <mxGeometry x="1675" y="588" width="140" height="40" as="geometry"/>
                </mxCell>
                <mxCell id="201" value="" style="shape=image;imageAspect=0;aspect=fixed;verticalLabelPosition=bottom;verticalAlign=top;image=data:image/png,iVBORw0KGgoAAAANSUhEUgAAArEAAAKxCAYAAABE2vQtAABAfklEQVR42u3de3Cd5X3gcflCuJgkIrN/NLP948CmU7abLQpbtnZKBoVg2RgHCwzYDm2s0g3J0iSIGaDGMpGaBrLZ2SKnlObSQXYHSJOArcQFXAhYaWzLlxAdbElQaCNNwMENkXSggUJJqrPnlS0jy7Kty/ue814+35nvdKdpEhaOdL48/J7fU1UFAAAApIkDF+RqDszPNQS+OD9XeyIPzs/ljqc/kwAAAIiclxacc+OBBWcXShYjtv8YP3h2vvQ/O8b60wXntP/0g+dsGGspnFvG+tKC3I2jwT1RdAdBPhrV/bW5an+VAQAAYkg+X121s6ehamd3y4i7elZX7crnTvrvKwVicxniNW6ODekJ4/nFBeesHw3m0VB+YUGufqJI9ukDAACYBru7b6zq7C6UwrU4zuGqXb3NArZ8FsbH8WgYj4/isUEshgEAQKYoFmeVInXDBPE63q5j/r3BP2I/HFviM74nxYdCeEwEj45RjD0RNi4BAABSGLCHDEYMxhKcBIrF1J4EHxO/Y09/zQkDAICKsae3ZdIBe8ihkbnZUUbCRvRxfPSOO+110gsAACoYsIfmY3fubxCxDDV4xS4AAIgwYI8dKTjwu7lGUcYoYze41BaMMwQnu2NHGfwUAwAgYKcdsYcvdgkuVj50D48wjJ7o+kkHAEDAnvBy14sLcuvFFGN8SU3kAgCQ9YCdKGJHTmMPvZglmpgsD7/0NnZcQeACAJDCgJ0oYoUs0zyqMBq4TnABAEhwwI7fTiBkmdUT3NELZ6OXzWxVAAAgtgF74ogVsuShGdyxp7fiFgCAigfsySN2lBfm5zYKGvLYuB09ufUbCgCACdjb0xBBwE4+YoUsOYWxhPm5Fqe2AAABG1nATi1ihSw581Nbl8kAAAK2AhErZElhCwBAhQN2ehErZMkIw3Z+riUIW6MIAAABe5KI3d27bFp/jMGXrfAgo91tG8zYjm5G8JsRABBrOp/+QJkC9lDEbu+e/nejkCXL7pExBKe1AIBYBWxndyExEStkyRhsRPjgORsO/l5u9cH5uZzfogCADARsOBErZMn4jSAEUevCGAAgpQEbXsQKWTLGUeukFgCQroANN2KFLJmcqDVTCwCYEXv2nV3BgA0/YoUsmbyZ2uCimO0HAIApBeyunv4KBuyhiN3bE/7YnJAlk7mrdnSe1ugBACDGAXsoYnflo/muErKkU1oAgIBNXMQKWTJlp7SHL4iZpQUAAZv6iA04sCDXKADI9D26YOwAAARsqiM24IX5uQZf+mR6xw6Cp3EFLQAI2NRFrJAlBS0AQMCGGrHlRMiSghYAIGATF7FClsxu0JqhBQABm+iIDQjedA9uO/tyJ7N7KcyWAwCIIfv3n5WAgK1cxApZkoHB2i57aAEgRgG7uyefgICtbMQKWZJj7B/ZQ2vcAAAE7OQcqvifMyFLcqJxA98oACBgj293Xyz+3AlZkk5nAUDAJi5iA4IvquBLyxc3SaezAFAGisVZyQzYmEWskCXpdBYAyhiwu3o3JDNgYxixQpakzQYAIGAn4bZY/rkVsiSncjpr1AAAMhWw8Y1YIUtyujFr1AAAUh+w8Y5YIUvS3CwAhBiwu3taUxKw8Y9YIUtypnOzYhYASuzpbUlRwCYjYoUsSTELAAJ23HaCtsT8+ReyJMUsAAjYxEWskCUpZgFAwCYyYo+E7AfPzvsiJilmASCLAVuys6c1kX9d+mtz1UKWpJgFgAwGbODO7pbE/vURsiQjiNlmMQtAwIpYIUvSC2AAIGDDdrgUsc2J/+slZEmKWQACNjMBeyhiO7tvTM1fuxfm5zb60iVpXhaAgM3CSez+hlT9NRSyJKOclw3+yY9vSwCxYm9PQ8YCNp0RK2RJGjEAIGAzELE79qXzd7GQJWnEAICATXHEbu+uTe1fWyFLMmILwYiBb1IAAlbEhs6L83MtvmhJRj5i4FQWgIAVsUKWZFIvfvl2BRApnU9/QMBmKGKFLEmnsgBSEbCd3QUBezhid+Wz87tWyJJ0KgtAwIpYIUuSTmUBCFgRK2RJpnGDgb2yAARsBBGbVYQsyXLvlfXaF4ApsWff2aVY6xesIlbIkjReAEDAilghS5LTM9foGxqAgJ2RQz4oQpZkRTyn1W9fAAJ2unb3+bAc5oX5uQZfqiSNFwAQsCJWyJLkJEL2wAW5Gr+BAQErYKfkNh8aIUvS4wgABKyIFbIkKWQBCFgRK2RJZilkF5zTbp8sIGB5Eju7232ATkAwpxa8tuOLlaQLXwAEbKwudrX5EAlZkkIWQDnZv/8sAStihSxJmwsAJCtgd/fkRegM3dnd4sMkZEnG24KQBQQsRayQJZlID/7ef1nttzAgYDnicClibXOZKsGM2sg/4vOlSlLIAhCwFYrY/Q0+WEKWpJAFEBXF4iwBG0HE7tjnd6GQJSlkAUQWsLt6N4jOCCJ2e3etD5iQJZlAB5f8tnkwQMCKWAhZksnypQ+9r/h6w8VCFhCwIhZClmTyQvbfr18iZAEBm72I3ZXP+bAJWZJJno+tPVfIAnEK2N09rSJTxApZkpxkyP7ys/VCFqg0e3pbBGaZIjafr/aBE7Ik03DRa+n5xeKt1whZQMBmI2IhZEmmx39dcaGQBQSsiMXM6K/NVR/44Nl5X6wky+nrqy8WsoCATbndfT54QpZkCjcW/Ooz9UIWELAiFkKWZPIueg3ftFzIAgI2rW7zARSyJFPqK8sXFIu3rCiF7IpWv4UBAStiIWRJJms+NgjZW1Zs8FsYELCpsbO73QexArwwP7fRlyvJss7HCllAwKZrJrbNh1HIkky5P1983mjECllAwKbkJLbHmJSQJZkFX7v2IiELzIS9PQ3iMUY7Ynd2u7QqZElmcKyg5DX5YmO9JxsBAZvMiO3svtEHMwa8uCC33pcsyTKPFRSLt17dJWQBAZvMk9j9DT6ccQnZ+bkWX7Iko/bN65cIWUDAJj9id/cu8wEVsiSz+AiCkAUEbJIjdnt3rQ+pkCWZMV9dceHREStkgaPpfPoDVZ3dBbEoYiFkScb6ktcR+4prVub8FoaAFbCxj9hdeb+rhCzJLDpUf8FEEStkIWAFbDIiNp/3T46ELEmXvIQsIGATFrEQsiSt3BKyELACNmEO+dAKWZJOY4Usss2efWeXoqhfGCbKPh9cIUvSaeyJIlbIQsAyfnb2dPnwClmSPNlprJCFgGXc3OYDnEBemJ9r8KVLssynsUIWApYxOontbvchFrIkOdnTWCELAcuY2N3mgyxkSfJke2OFLAQs4+XO7hYfZiFLkkccvmn5ZEN2qHjL1TV+C0PAsiI7Ynd2N/tAC1mSPOKrKy6cbMQKWQhYVjBi9zf4UKeEAxfkakpfQAVfwiRn4ksfet9UIlbIQsCyMhG7u3eZD7aQJcnpXPASshCwrFzEbu+u9eEWsiQ5nXVbQhbxZ//+swRsSiN2b4/fN0KWJGd0wWusw8Vbr1nttzBiE7C7e/KCL6URuyuf8yFPd8j2+zImWYYLXkIWApbljVikm4PzczkhS3I6Hqw9d7oRK2QhYCliIWRJJuqCl5CFgGU5Xuvq82EXsiQZxUiBkEX5KRZnlQKnQ+Blwm0+8EKWJKMaKRgbsl7WQRkCtneDuBOxELIkGcZIgZCFgGUU4wRtPvhCliSjHikQshCwDNfOnlYffiHrS5pkFA8fCFkIWEa3mWBnt98jQlbIkozs4QMhi2gDdndPq6DLasTub/BDIGSFLMmT+otrLwozYoUsZs6e3hYxl+GI3d27zA8BhCzJkzpUf0HYEStkIWA5/Yjd3l3rBwEj9Nfmqg988Oy8L2uSE/nSh94XRcQKWQhYTi9id+VzfhggZElOyrduWCpkIWAZj4jN56v9QEDIkqzUXKyQhYDl9CIWELIkJ+vg0vOjjNhD3rzCAnMIWJ7soYM+PxQQsiTjMBcrZCFg6clZhMsL83MbfXmTHPWXn6kXshCwFLEQsiST5Wsf/0h5IlbIQsDy+OMEfjdAyJKcmq8sn1++iBWyApb05CyELMkw/Pni88obsYG3Xt1VbKy3Ticr7O1pEGo8YcR2dt/oBwVT5sUFufW+yEmXu4QsBCw9OYvkhez8XIsvc9LlLiELAUtPzkLIkkyMb1xXV5mIFbIClgwidm9PjR8aCFmSU/bVFRdWLmJHQ3bNypzfwimhs/sKYUZPzkLIkozcofoLKhuxh+wTsmkI2Kc/UIrYgjCjJ2chZElG7s8ueX8cIlbIClh6chYQsiQTsKFAyApY0mtdELIkE7mhQMgKWGbbzu52P0QQsiSn7Vs3LI1TxApZAcvMRGxPqx8kCFmS0/a1j38kbhErZOPOnn1nlyKkX4jRk7MQsiSzu2ZLyApYZjNid+xb7QcKkfPC/FyDL3vSmi0hK2AFLL3WBSFLMhYOLj0/zhErZAUsvdYFCFmSsd4VK2QFLL3WBQhZkpPzYO25SYjYwKHiLVc7uRGwTIdDfrhQyZAtCAAyHSYkYoWsgGV61mt1+QFDxThwQa5GyJLpcPim5UIWApZe64KQJenVLiErYMnj293mBw1CluSMffP6JUmLWCErYJlkd3a3+GGDkCWZ1YgNHC7eeo2F6WGxf/9ZApblea1rf4MfOMQtZPsFAenpWSGb0IDd3ZMXWPTQATLJwfm5nJAlRayQFbCkhw4gZElG7i+uvSjpEStkBSw9dAAIWTJrvrriwjRE7OGQXdHot7CApYcOACFLitgknsg2+y18EorFWVWd3e2Cih46AIQsKWKFbHICdlfvBkHFykRs6W+eACFLMgyH6i9IW8QKWQHL+J7EtvpBhJAlKWKFrIBlsi51dfaYW4eQJSlihayAZcIidnfvMlUEIUtSxArZyQXs7p5WAUUPHQBClhSxQjY57OltEU+0IxYIgf7aXPWBD56dFw+kiBWyApZ2xAJClqSIFbIClnbEAkKWFLFCVsCSIbpN/UDIkhSxM/XmFW0ClrQjFphRyP50wTntYoL0YpeQFbC0IxZIHC/Mz20UFKSIFbICltZrAUKWpIjNQsgKWCYhYvf21CgdCFmSIjaCkC021lcnMGCbBRITEbGAkCUZpq99/CMCdtRbr+5KVMju7mkUR7QjFogZLy7IrRcYpIgVssdhb0+DMKL1WkBcQ3Z+rkVkkNH65vVLhGvSQlbAMnF2t6kaCFmSIjbLIStgmUR3drcoGghZkqH61g1LBeuJQnbNypyAJWd4qWt37zI1AyFLMlR/+Zl6sXpi+2IRsp3dV4gh2hELCFmShx2+ablQjXvIdj79gVLEFsQQExux+Xy1ioGQFbJkqArUmIesgKX1WoCQJXm0B2vPFadxDlkBS+u1ACFL8lh/dsn7hWlcQ1bA0notQMiSnNiXF58nSuMYsgKW1msBQpbk8R2qv0CQxi1k9+w7u/TF3y9+aL0WkAFemJ9rECTk1H11xYViNE4hK2CZxojd21OjVAAhS4bqL669SIjGJWQFLNMasQCELBm2b1xXJ0LjELIClmm1s6dLnQBClgzdN69fIkDDc6h4y9U1Apa0XguYfsguyNWXvqALIoX05GysQ1bAMv0nsa2qBJgiBy7I1QhZ0mtdsQ1ZAcsszMN29jQqEkDIkl7rSkvIClhmJWK3d9eqEUDIkh46SFrI3ryyVsAy0xGbz1crEaCCIbvn0g8VN69cWbz7kzcfZfC/+179kuIzteeJInrogBM5XLz1mtUClhl1SIEA4YVs/2S+3IMovbPx88WLv7Kr+N7NrxbPfLR4UoP/u+D/fs2frB+JW2FLDx3wqJDdv/+sqt09eWFDmwkATJmD83O5E4VsEJ9BiE4mWidj8J9196duLu5ZfKFooh2xGXa45B/f3+YEljYTAAg3ZINT0xta2kKL1xMFrRNa2hGb3ZCt37RJ2NBmAgDhhGxwSvqb33gx0oAd7x988UGns6y4wzctF5dldmjt6mLuyR0ChzYTAJhZyD66vL5/sjOvUZ3OBiMMgorl9qUPvU9UVshtX7pV4NBmAgDTZ94jxZpSSBYqFbBjDU6Cg1EDcUXrtbIxVrD6mw+IHNpMAGDqnLa1mJv3aLE/DgE7Pmb/puF6kcXIfWX5fEFZQfuaPylyaDMBgHQE7FiXtT5mZpaR+otrLxKTFT6Nrd3ysNChzQQA0hOwLoDRZoJs2Hb3HUKH6Z2H3d27THUAGQ1Y87KM0rduWCokY7CpQOwwtRG7t6dGeQAZDtjxMetUljYTpGukwLotpjZiAQjY8a5Zs16I0WaClETsMo8fMJ3zsF3qAxCwTmVpM0GKI7bxvnsFD1MYsd3tCgQQsE5laTNBim1pu0fw0HOzALIVsGNf/XIqS5sJRCzpuVlAwCZyvGCjRxI4SYdvWi4gRSzpuVkgTlS3F6vnfXc4UwFrvIBT8WeXvF88ilgyQrv71AgwjYA985FiPqsBO+rvtPUaL+BxHVx6vnh0sYv03CwgYOM7XvC9+iWijS51WbFFlted3S2qBBCwxgvoUlfKI7Z2y8Oih56bBQQsJ/KG5nvFG13qimnEVv/gKeHDdEXsrnxOnQCToBRp7ULVnCxd6kqifc3Xix6mzSFlAkyCeVuLGwSqV77oUldSbW/9nOihS12AgKULX3Spy2YC0qUuQMCm2rs/dbOoc6mLFY7Ymr9/QvTQpS5AwNLmAp5M8WgelnSpC6jMJa5W8SlkOT1fXnyeeIyRbXffKXropS4gEwG7tdgsOoUsp+8ry+eLR/thyejs7G5XK4CALbt/8MUHhV7KfeO6OgFplICMbpSgs6dRsQACtiIua32s+EzteYLPIwc0SkBOPWK3d9eqFkDAVvRRBCHrkQNGO0qQe3KH6GH6Ijafr1YugIAVsgzVofoLBGRM3PalWwUPUzgP29OlXAABK2QZuq+vvlhAxuQUdvU3HxA8TONmgjb1AgErYIUsQ/dXn6kXkS50kdGNEuzpWa1gIGDFo5BlqB6sPVdAOoUlo43YvT01KgYClkKW5mFTegpb/YOnBA/T6JCKQWY547v/IWBj7sVf2SUIzcNyBra03SN2mFa3KRlkknlbi6tFogcRaB427aew1mrRIweAgKWQpf2wZmFJjxwAApZTc82a9QLRPCxtJCAPRSwgYClkGbZvXFcnJJ3CkuZhgTB456PFehGYDu9o/LxQjLnDNy0XkxW06ws3ihym/aWuVmWDbJzAPlKsKcVPQQCmx7s/dbNYjKkvLz5PSFb4FNZlLqZ+lGB37zJ1AwHLRPreza8Wv1e/RDTG0FeWzxeTFbT1a3eJHKY/YvP5aoUDAcvE+pvfeLG4Z/GFwjFmvnn9EjHpYQMyylGCLoUDAUshy1B96UPvE5Muc5HmYQEBS8/TJsvBpecLygrZdved4obmYYEkc9rWYm7eo8V+cecxBHpq1stcpHlYQMDSDll6atYYAWkeFhCwtHrLU7M0RkCah4WAFbC0estqLdsIyHSPEmzvrlU9ELC0sYBWa3nUgDQPCwhY2liQXQ/Wnissy2xL2z2ihllzm/KBgGUmvKH5XoFZJofqLxCWZXTzXZ8TNMyeO7tb1A8ELDPjHY2fF5ll8I3r6sSldVqkeVhAwDJMN69cKTQjdvim5QLTHCwZpUMKCAKWLnoxVF9efJ7ALFPANt7XJmaY0dVa3e0qCImlur1YfeYjxbwo43QveglOr3S5yEUmdJRgT89qJQQBSxe96JWuhNn1hc8KGWY7Ynflc2oIApZe9BKeRglc5CITZHefGoKApRe9Nr9qPjZEf3HtRUIzQofWflzAkru62xQRBCx5+KKXhxCMEiThIlftlkcEDI0SWK2FpFGKjXbBRfOx8fVnl7xfbNpEQEYfsUCSmLe1uEFo0XysUQKbCEhPzaoiCFjSfGyovnXDUsEpYEmrtQABS/tjk+PB2nMFZwRu+Ms7hQtptRYELGk+NipfWT5fdNoFS0b8SldPlzpC/AP2u//RKqZYSTevXClOjRJUNGCrf/CUaCGPjthWhYR4byHYWmwWUbR2yyiBxwxEC2m1FgQsOQ0v/soukToJX11xofgUsKRXuiBgyTh5R+PnhaoHDgQs6ZUuQMDS2i0PHFDAkkYJIGBJYwUeOBCwZLodUksQsOQ0XbNmvWg1SiBgSaMEgIBl8vxe/RLhOsaXF58nRAUsGf0owe7eZaoJApa0dis0X199sRgVsKRRAghY0mteRgmy8pCBgCWNEiBhzPv74o1CiF7zSr6DS88XpF7iIo0SICMBu7W4WgDRWIFRgqy64S/vFLCkUQIIWNJYQaV86UPvE6XTCFhBQholgIAljRVU0KH6C4TpFGxpu0eMkEYJIGDJ+Pg7bb2ZjNg3r18iTgUsaZQA6eWMb/2qXujQIwjp8mDtueJ0Eg6XbPjmA0KENEqAxJ3APlKsKX3BF0QO0+57N79a3LP4wsxE7CvL54vUkzi09uPFmq1PiBByJqME27tr1RQELBmxF39ll92w9IgBGd4pbJ+agoAly+QdjZ/3zKwdsAKWNEoAAUsaK7Ab1g5YMpOjBHt7alQVysYpG94SsMy8y1ofS3XEDt+0XLDaQEBGa2dPl6pC2ThtazE379Fiv4gh07s71m7YiS9w2UBAhnwKu6dntbKCgCU9SWs3bIQXuGwgICOI2F35nLqCgCXtjrUbNgK3felWF7jISEYJutvVFQQsWWHTdMnrF9deJF4P2/q1u4QG6ZlZCFjS7li7YZMz/9p4X5vQIO2GhYAl0+/GhusTH7CDS883/2r+lbQbFgK23M7bMlw8Y/N/jHj63/5yxNPu+/fiaRvfPMZ3fO3fjjjRvx78+0b/M8548JdH/nPFGtN8yeuN6+oyHbCb7/qc/a+kC10QsCHH6YOHgvTUe98onnLP68VTvvxace7//dfi7D97ZcRZ64bKavDfOefOV0f+GII/luCPaTSIR8M3+OMWdy55udAVf4dLGh8gy+Y2pYXUBWxw0hlE4EiolsIwiMTZLYWyB2qosVv64z8Su6XQDf7/FsS4yHXJy27Y+IwP1G55RFiQdsNCwE4yWIOT1VKwBmGXhlidSeSODdzRU1wx6JKXC13WZ5EudAGToLq9WH3mI8V8VOMAp//tWyOhNjICkNFgnWncOrn1kldUvrz4POMDJF3ogoANDKL11K/920iIidJwZ3FPuesXI/O3wtYlr7B8ffXFxgdIutCFbAZsEFMj4wFffs1Ja4XC1omtS14udNk+QHqhCwJ2CuFqRCB+BnPGwd9QBH99zNhWxvdufjURp7GvLF/g8QKS0Z/Cbu+uVV6oeMAGowLCNbmntaK2fN7QfK8LXRW26wufdXmLdKELaeKM7wy3T22bwK9GZlyFa3oujolal7zS/kJX69fuEg+ktVpIE/O2FjdM9dRV+GUjao0fZGvl1pvXL3F5i6RTWKQnYINZV6euxg9GZmqDhxk8t5vK09i0XugKTl9d3iKt1ULGAla88ngGp/Gja71E6fRWblmr5fSVtFYLCDlgxSundUobjB44pZ20dzR+3oUuq7NIp7DAVDhza7FZvDLKU1oXxJK1cmuo/oLUrM6q37RJKJBOYZGVgBWvjPSU9p7XjR3E/AGENJzCOn0lY+82FYZQAza4qBOEhuBiOS+HCdj4nMa+vPg8s68kPW6A5ARssOfVqixWdIXX4aDN+rO4lX4AIckXumweIJPyxGxPlxLDjAN2dHRASDFOju6kzWrQ7ll8obVaTl9JjxsAxwvY4KECowNMRNBmbOSgUg8gvHbtRYkL2Ja2v3L6SnrcAFkJ2OB06x33vC6QmNiRAw8guNC17Uu3Fmu2PiEISKewyErABrOvTl+Zlkthad5yUO7T2KSs1QrWZjXe1yYGSKewyFLAnnbvmwKIqQ3aNO6hLedpbBJOYdvuvtPoAOkUFlkK2GB8wOYBZsE5d76aqpfCynUaG/e1Wl1f+KyLW6RTWGSJeX9fvNH4ALP8UlgQtE5jk7tWy+gA6RQWWQzYrcXVwfiAV7foQlgh0fOzUZ/GxnWtltEB0iksMhqwp37tDQFDTjA/m8RxgyhPY+N2CtvxpVuNDpBOYZHJgN1cXB3s1RQs5OQeVMjyaWxwChuXC11GB8jUuk2d4aScdv+vVgcXWwQKOY3tBjE/nY3iNDYua7U8F0um+BR2b0+NQsMJmXPnv9a7wEWm9zLYb37jxdSt1QoeLMg9ucMXPZneWdg2hYYTckrrazWzmwsFEUKm+3T27k/dnIpTWCuzyIycwu7K51Qajs/aQk3pS1fAkhk4nQ3zNPatG5aWPV4L5l5Jp7CAgCWzeTobxmxsuR83COK1pe2vzL2S2bHPKSwELBnTzQaV2jsbxqaCcq7VWu/SFpm9MYLOnkahholpLuQELJndvbMzOY0t1+MGHS5tkR42AI4J2KahfgFBxux0toyjBjM5jY36FNZjBaSHDcQaBCzpItikTmOfvPC3in9z0fnFP//w/yz+2cULjviV2t8Z+dfKcQorXkm6zAUBSxo1OKl1658YidSrFtUVlyxefFKDqO1b9eHQ47W/+fpi/aZNvrxJWqmFCQO2uhSweWFAGjWobn+t+N+a7y/WLVs+qXgd712rLi/+y41XhxKvq7/5gC9ukofc2d0i2HAMpS/BdiFApmPUYCZbDf7TN/+lePHVq6cVr2P9w8uXFHd98kq7Xkm6zIXomL2u0OzLn0znqEElAnas93+83q5XkiGMEXTXKjYIWDJjMXvq1/7tpKMGUQTsqN/7X1eKV5IucyFEbhuo9yVPmpsdWakVUcAGXn3ZpRPOyIpXkl7mwvQ2EXjMgMxszI6dmw0ucUUVsKP+yfKlR13YuvG+e8UrSTthYZUWyeldAjvrKy9OewvBVN1y8x/ZNkDSGAFsIiA5c8/+xDfKErCBv/upP/alTNIYAVzkIjlzP3z5H5QtYgPndvzQlzNJYwRwkYvk9D3jlufKGrCBudav+IImaYwA5mBJTt9f+/TjZY/Y3/6T231BkzRGgCnMwXpSluQ4f+O6vy57xJqLJelRA5iDJTkjf2v1l8sesR9eucoXNcmJ3dndotrwNusKtb6sScYlYn+v4Tpf1CQnmoPtE20wB0vSOAHJ5NjZPWQOFkePETQNbPRFTfJ4/vr//k7ZI/b8G2/2hU3SOi2cgLUDDb6kSZ5wxdatVmyRNAcLYwQkE2jdZVeWNWJP3/oDX9okR+0SbTh6nda6oQ5fziTjNhfrUhdJ+2BxonVaN/piJjkpv/hPxVMfXF+su+LSskTsOX/zreLsvc/68iY5XLUzX6PacPQYwbqhgi9nkieL1zkPf7k495lVI/5m6xWRB+xHrv394lk/GRpx3rMHinN++I++yMmsBmxnT6Nog20EJCfvX+wuzun43JF4HfW0H60sfnjVkkgj9te6njsSsaO+8/mDxXfs6/OlTrrIBdsIfEmTnHy8jvWdO1ZENlbwW20PHBOwY31338/FLJkNtwk22EZAMpR4HetZ37sm9JD97/f89QkDdnzMntH7grlZMq0vcuXz1aINxghInnjmdQrxOv5ENozRgrorrzzpCeyJDOZmxSxpEwHSf5nLlzbJYy5sTdcgZGtuv3z6q7Q+e9OEM7DT0dws6UlZpBRjBCRn/emBUOJ1vGc+sbz4259dVFx4+aJJxevv/uGi4q9/94FQ4vV4c7NOZ8mEbSLY1V2r1nDsGIGdsGTm43X2t+4rzt33R6EHbOCsJz5arNpUN+J7/rKu+BtrFxX/xycXjcRqYPD//q83Lyr+5y/WFed+49D/3dzHGyOJ2FGr+weMGpCJCdj9DWoNLnORLFu8Bs7Zd82RgJ2qZ/bsiDRkx44anJL/Z7FAWqUFl7lIxt3Z922KNF4nOoWdqlGfxho1IAUsXOYimZR4/WpHce4PPx15vM70FLbcp7ETbTXwGhgpYBHXy1zrhjp8qZN2vUbl7I7LZxyx5T6NtdWAFLCIO17mIu16jdiqLYtnHLGVPI0dP2rgIhgpYGGlFslyXNpq/3pF4nXkFLbzylACNg6nsU5nSQELp7AkyzH3GvHGgXKewsbpNNbpLBmds3/4rICFlVpkludey3Vpq1ynsHE9jXU6S4bjrD29pZ+dHwtYTGKl1rpCsy970txrpGu1tl4WesTG9TT2eKezNhuQkzh93ftscd5zBzaoMziFJbP6WEFM4jWstVpJPY0d77v++Wf2zpInCNh3Pn9QwGKSp7AeNiDTM/fa9mjF517DftwgLaexx9s7O/dHz4sXsmTwN3fv+vHLAhZTOIX1xU/a95rQU9iknsa6DEYe7Wk9Pym+p39QwMIpLGllVnwM43GDNJ/GGjeg8YGDAhZOYUmjA/Ez7LVaaT2Nncgz//GnthswtQajNME/hSh91rtEGZzCkrYOxOsUNoK1WifyjB+1py5kA6v7B8zPMlWe8cyLo5/vrur+QrUqg1NYMgtbBxJw+lruU9hRZ//dtamM2InmZwUtkzo+EIzMCFg4hSU9WBBb5zx1VVkDdtTT9z6Q+pAVtEyip+7vH/mnCgIWTmFJF7dibdRrtY7nrO9cUazuezEzITs2aM/ofcGDCozl7OuY01cBC6ewZOovbn21I3Gnr+Vcq3UiT9v19cxFrBNaxvHp2DGzr6P2lQI2p8YwvVNYr3ORsT99nfP4/0lkvFb6FDbrp7GCljEdHRCwCIGmwUaRQMb49PW+TYm6uBWXC11OY6cWtKfk/3nklExsMYrRgWDv6wSfPwGLmeEUlrQ2K21rtU50Gvvu558TrycwiA0PKzDieBWwCIG1Aw1igXT6GvkowcOXxiJiA095cq1YncJLYcHFMGMHDDFeBSycwpJmX63VyvpztJUYO3BKyxnEq4BFSKwbqBcNZMw2D6To9DUuF7qy8hytU1rGPF4FLEI8hV031CEcSHtf07xWy2ls+Z7ADSImuH1uJ212VmUFf73H7XoVsCjTWi3xQHp1KyMXuo73HK2VW9GNHpz5jz8dGT0Qtek7dQ1O4CdYlSVgUR48bkDGYHwgpaevcVurZeVWfKLWSW2yT10nOTIgYOEUlkzz6qy5O29JfcDG8UKXBxDiNX5wWs9PRk727KdNXbiOOiRgYa0WaXWWC10Reer2VmEZk4tio9sPnNZWxmDrRAjhOjZga0QXrNUi03B565EvZyJe436hyyWvZJ3WBvOXwWtiwjaa09bRGdd3//jlMP/6CVhEgLVaZPn98/2pvrw14YWuHyxLVMRauZWsF8WC6ApODI0iTC9aT+/5ycifxylezhKwqPAp7LqhdlFBlnl8IEPxmpQLXRM5b99jIjEFp7bi9m2D0+t3PP3jkT8vU1iFJWDhQhfp5a3/k8mAnbNneeIC1sqt9MZtEG/BZoTgElkQdEHgpm00IZhlDUYugoA/49kD5QrW8Q4LWESGtVqk8QEXuqzc4pjVXz9+eeQEN4jc4LRyfOjG4Xnd4ER5NFKDP7bgjzEI1eCPOeQ51hkG7ECD0oILXaTtAy50VXDl1ruff07gccLgDU44g+gdGV0ohWRgEJVjDULzZAYnpmP/PaP/WUGYBv/ZwX9XjAJVwMKFLtLTsRm40BXjF7pc8iIFLFzoIpnBxwvSeqHLyi1SwMKFLjJ7/sXuTI8PJO2FLpe8yLACdrBRYCF6vNBFWp/lQpdLXmRIvqd/sEVcwYUu0utbLnTFWJe8SAGLil3oKtSKDtL8qwtdLnmRAhaJwm5Y0v7XsowSbL0slREbePreBwQMBayAhVECMqHzr/c+6gJXxkYJxu6OdcmLAhZwoYtMXsB+636xmqELXRP5ju/fIWYoYIGyncLaDUvOPGBd4MrMbli7Y0kBizhgNyw54w0Eczo+J1IztBvW7lhSwMIoAZn8DQQucBklmMBTt7cKHApYIOJRgg4xQgpYF7qMFZACFkYJyCys0LKBIPO7YSczViB2mNKA3SCiYJSATOIKLWFqN6wnaSlgAaMEZGIC9r5NotQowZR917Nd4ocCFjBKQNoBm6hRgh1XZD5i52z9hACigAWMEpAC1m5YYwWkgIVRApICNqpRgvzVAtZYAZNvV1U+X62cYJSAFLB2w2ZUjyAwiQFb3V8QsDBKQHpG1ihB1vUIAgUsYJSAFLCemfUIAilgYZSApIA1SlCesYLfN1ZAAQsYJSAFrFECYwVkSPaVAjYnlhDXUYJ2sUK6xGWUoPLO2/eYaKKABaYQsYKFFLBGCWLgrO9cUXz388+JJwpY4KSsG6gXLKSANUoQH+c+3iigKGCBkzG7aWCjaCEFrFGCeHn63geEFAUscMJRgqahfuFCHg7Y+zaJTqME1m5RwAKxp7lQI1zIwwH71Q7BaZTA2i0KWCAZ87CDLeKFLPnn+4tz9/2R4DRKEDtPeXKtuKKABSbYSuCVLvKL/1Sc+8NPC06jBOZjKWCBhIwSeKWLFLBGCRKydutdz3aJLQpYYASvdJHFuTtvEZpGCczHMqsOCVgkEqu1mPmLXO1fF5pGCczHMssBW6OGkMx5WKu1aBcsjRKYj6WABRLFukKtkKFVWox0lCB/tei0P5YCFgiZpsFGMUMXuRils/9hmeCMbD722uK7n39OkFHAIoOjBFZrMYv+6QEBW8552IcvFZwROmfr9aKMU3G4uv/ntQoIyaa5UC1o6CIXIx0l2HeN0CyDp25vFWecZMAONAggpGAedqBe0DBzAXvfJnFZzlGCzitFpoteFLBA2BE7uF7UMHNzsMKyvKMEWy8TmGXUQwgUsMjKPGxe2NAcLCOze6WwdNGLAhYIfR7WU7M0B8to52H3LBeWFbno9QkvenFMwA42ih6YhyWTGrBtj4pKr3Rlynd8/w4Bx+J7+gdbBA9Sh6dmaR8svdKVbk/b9XUhJ2AB87BkUp3z8JcFpVe6Muu8H7ULOgELmIcljRFw0qu1dlwhIm0soIAFzMOSxgis1uL0nPWdK2wsELCAeVjSGAGt1rJ6iwIWMA9LGiOwWotWb1HAAuZhySFjBFZr0eotAQuYhyUTdgr7rfuFZKUj9uFLBWOMPXV7q/gTsEASI3ZwvdBhqi9zicjKjhLsu0Yo2iFLAQuYhyVd5krYaq3OK0WikGX0AbtB0SBr87DVQodOYWkelh5DELBAwkYJCrVih05h6alZClkBCyRtHrZF7DCV3r1HQHpqljPwzJ4dIlHAArGeh+0QPEzlKWzH50SkeVjO8FUvz9PG1+oXCptVDLIesQXBQ7OwjGwe9vGlglDIMny7qvsL1SoGWb7UVSN4aBaW5mEpZAUskCzWDjQIHjqFpXlYClkBCySK2U0DG0UPncLSPCyFrIAFkjYP65EDps65P/y0gLQflkJWwAIpnof1yAFT5+y2R8WjeViWIWTn7XtMWJbPvlLA5oQLMIpHDpjGUYLHvige4zIPu+8awedBBApYIIqI9cgBXehihBG7Z7nQy4Cn731AaApYoOzzsO3Ch0YJGNmlro7LRV5GPG3X1wWngAXKGrEeOaBRAkZ3qWvrZQJPyFLAAqFf6sqJHqZuK8HT14nHOF3qEnaZ89TtrQJ05vYLWOCE87AD9aKHqfLuPcIxTvOwT10l6jLqnK2fKFb3vShGncACLnWRk5qHvW+TeIzTPOyOKwRdhp39d9cW3/38c6JUwAKRzMN2CB+ah2Vk87CPLxVzQtajCAIWcKmLPOk87M5bxGOcIvbhS4UcreASsIBLXeRJI1Y4xsfuleKNNhdMziEBC7jUxSz7//YLR5e6GHPnPt5oTvbYgK0RJYBLXbSZgC510YUvAQukfB7WS130Uhdd6qI5WQELJCxim4b6hQ9FLF3qYiV9x/fvyOI+WQELzOBSV7XooYilS100XlB2h6v7B+qFCDDtedhCreihiKVLXbS9oOwB2yBCgJnQNNgoepi6iP3q9wWkS110KitggVTPw7rUxTT6xX8SkHGJ2I7LBRmdygpYIJKIzYsepvKxg6evE5FxuNS19TIhRqeyAhaIJGIFD1PpnI7PicgYWNW+SITRqexIwA42qg4gLJoLNWKHqZ2L/db9ItJmAqb0VPaMH7UnKmLf0z/YIjqAMPHcLNMcsV7tspmAnq0VsEBaI9ZzszRSQJsJmPxHEuIaswIWiG4etkPo0GksbSagmBWwQNIi1mYCOo2lzQQUsyF7xu6NQ1Xti3NKA4gCz80ySztjrduqTMQ+fKmoYsU85cm1xTN7dpQ9YE/dsX70j6FPyAKRzMN6bpbGChjxei0hxZhsMzh97/2Rn84G//nBZbNx//1CFgg/Ym0mYMZCduOWgrAs42aC/NUCirHcaBCs5wozaKt//OLI/tpZ3znuRUYhC4QbsYPrhQ0zZKFqbaFmTs/KBoFpvRYZOGfrJ0bmZ+fte6z4zme7phyuwb/vlCebThSvQhaIApsJmLWAHf3sC1nrtciJDGI0OKkNZmlP3d46cro61uB/F0Tv7Ievne5/x1DVtxfWKBBg5hFrMwEz4diAPSpkez9mvMB6LbLcCllgRthMwKwE7O0DDcf7MTil52M1QjbCzQSPLxUspJAFwp6HtZmA2Q5YIWu9FilkgURGrM0EFLBCNuL1Wu2LhAp5spB98JJaUQJMKWIHW4QOBayQtSOWrLjDVZvrVgsTYJKUvujbxQ5TGbBNg43T/bkIQnbOM6v6BagdsaSQBeIbsTYTMH0Bu26wZcY/HM+uzAlZO2JJIQvEN2JFDwWskI0uYvcsFyWkkAVCprlQI3ooYIWshw7ImIbspkWNYgWYCOu1KGCFrIcOyHiHbHtds2ABxtM02Ch+KGCFbKQ7Yp/4qBAhhSwQ9kns4HoBRAErZCON2K2XiRBSyALhUgqADhFEAStkRSwpZIGkRaz1WhSwQjbaiN2yWHyQYSpkAeu1KGCFrCdnSSeyQNKwXosCVsh6cpYUskDisF6LyXxKdmPsfpbyDdVze1flBesEdq8UG6SQBULGei0KWCEb9Wtd+1YIDVLIAmGfxFqvRQErZCOO2PzVIoMUskC4WK9FAStkI4/Yp64SGGTZXNimbpCViLVeiwI2qpB9ZmWHiBWxpJAFoolYkcR42zSUr2osVCf1Z2xOz6qNmY/YPctFBSlkgRBZU8iJJApYIRt5xHZeIShIIQuEiPVaFLBCVsSSaXdz1YbaatGDdLF2oEEsUcAKWRFLptyHFnUJWaTsJHawRTBRwJaXuT2r1otYkkIWmAGlYGgXTYxZwPYHs9pp/9mb27uyRcSSFLLA9CPWjlgKWCEbubP/YZl4IIUsEGLElqJBPFHAClkRS2YwZNsX55QQknwSK54oYIWsiCWzaZ+QRTJpLtQIKApYIVuWiN1hJpYUskBY2BFLAStkXewiKWSROOyIpYAVsiKWpJBF8k5i7YilgBWyIpakkEXSaBrcKKgoYIWsiCUpZJEo7IilgBWyIpakkEUSIzYvrFhGCwJ26szpWdmQioh96iphQApZILSIFVYsX8CuLdT4qctuyIpYUsgC4dBcqBZWFLBCtmwRm79aEJBCFggBO2IpYIVsOSN23woxQCbXoapvL/S7HHGJ2IF6gUUBm8CQ3b+qfm7vxwqJC9nulUKAFLJACDQNNoosRmnVbQP1ftCi4ZSej9UkMWRFAClkgRBOYj10wAgD9vaBBj9kQna8s7YsFgGkkAVmRik02sUWBayQFbEkpxWyD9X5p22oWMR66IACVsiWN2K3XubLn0yPw1Wb61b7LYzyR2zTUL/oooBNT8jOeWZVf+wj9omP+uInhSww45NY4cXwArZpsNFPVYV5dmUu7iE7u+NyX/qkkAVmgIcOGGbArhts8UMlZCcVsTuu8IVPCllgRhFbI74oYIVs2R886BSxZKpDdtMi/1QOEeO1LgpYIevpWZJRhGx7XbNfwoiOtQMNIowCVsh6epakkEXCTmI9dEABK2Qr9GpX+yJf8qSQBaYdsevFGAWskK3Imq2HL/UFTwpZYHp4rYsCVsjaFUtSyCKJEeu1LgpYIWtXLEkhi4RFrNe6KGAzG7Jze1flrdkiKWSR1JNYcUYBm1XyDdWVDFlrtkghC0wPr3Vx8k/JbvQDI2RDt3ulL3NSyALTilivdVHAoqIhO2vLYl/mZJZ9qO4uv4QxdbzWRQGLCoesDQUkqzYtbPNLGFOM2IF6oUYBi6NC9plV7WXdULDD5S6SQhZTpWmwUaxx4ktchXY/INllTs+qjWW73PXUVb68SQpZTPUk1pOznMCmoXxVY6HaD4iQdbmLpJBFXE9iN4o2ClhUOmQ9P0tynJurNtT6LsLx8VoXBSziELJe7iJ57NaCRV1CFiKWAhYzYm7PqvWRzsXuWe4Lm6SQxRQi1pOzFLCYbMj2rmwxF0tSyCIuJ7ECTsD2V60p5Pw0oNIhay6WpJDF5PDkLAUsYhSy5mJJnjRk2xf7zkKJUrwIOQHrBwFxCVn7YklOwj4hC0/OCli/BBCvkA3mYtsX+ZImKWQhYilgkayQnbX1Ml/QJIUsTsLagQZRJ2CBOIXs7B1X+HImKWRxspNYT84KWCBmIWvVFkkhCxFLAYskhqyRApJCFiemaXCjwBOwQJjM7lnRaKSApJBFpHhyVsACUTCnZ2WDkQKSQhYiltO1ULW2UOOTjiSGrJECkkIWx4/YpqF+oSdggTiGrJECkjMK2W8v9B2Y8pPYgtgTsEAsQ9bDByRn5pCQTXfECj4BC0QfsvtX1c/t/VhhyqexHZf7IiYpZDGO5kK14BOwQLk4pedjNVMN2TlPXeVLmKSQxTjWFHKiL11W3TZQ74ONtIWsC14khSyOZl2hVvilKGBvH2jwoUYaQ9YFL5KhhexDdQ57RCwFLFCmkHXBi2R4Dldtrlvtt3DSWTvQIAAFLFDJkJ3zzKr+SZ3G/mCZL1+SQhaHaRpsFIECFqgoz67MTSpkveBFUsji7XGCwRYhmOCALf1NiA8xshSys574qC9ekkIWIxG7XgwmNGBLfwPiA4ysheyc/DW+dEmGH7KbFjkUSuA4wUZBKGCBJIWsdVskIwnZ9rpmv4QTRCmIOkShgAWSFLIePyApZCFiBSyQyJA1G0tSyIrYvDgUsEDSQnbOvhW+bEkK2UxHbNNQv0AUsEASQ3Z2x+W+bEkK2QyfxIpEAQskM2S94kVSyIpYClgg7iE7t3dV3iteJIUsqqrWFHJCUcACiSHfUD1RyFZtWeyLlqSQFbGMRcCuHVzvAwpMLmSt3CIpZLPGukKtYIzlU7IbfTiBqYWslVsky+JDdXf5JSxiKWCB8ELWJS+SZXNhm1/CFY/YgXrhKGCBRIfsM6vaj1zy2nmFL1eSQjYTrB1oEI8CFkg6c3pWbTwyVrD1Ml+uJIVs6mkabBSQcdhCUGj3YQRCClljBSSFbBbGCQZbRGSFbRrKVzUWqn0YgfBCds6e5b5YSZbTzVUban2Xlzli1wtJAQukMWQ9SUuyvFsLFnUJ2fKOE2wUkwIWSBtze1e2BGMFsx5e4ouVpJBNI6WYaheUAhZIa8jO2bfCfCxJIZvSiO0QlQIWSHXImo8lKWRFLGccsP3BU78+eUB5Q3b2D5b5UiVZbvuq2hf7zo8wYvPiUsACmQhZz9KSFLIpithSWAlMAQtkImTz17S46EVSyKbnJLYgMgUskBVm//Cqlqoti32pkhSyKYhYkSlggeyFrI0FJIWsiKWABRIXsjvrhSzJyoTslrqz/RaeKaXAEpsCFshsyG5d0lL6Qhn2pUpSyIpYClggWWxZ1ChkSQrZpNFcqBGdAhbIPJsWNghZkkI2Sawr1ApPAQtAyJIUsiI2uw5VrS3U+FABQpYkpxyyD13yAb+EpxSxA/XiU8ACGEP7wppSzA75UiVZZoeE7FRYO9AgQAUsgIlCtq7PlypJIStiBSyAhIXs4pyQJSlkYztOMNgiRAUsACFLUsiK2Gw4XHXbQL0PEJCFkK2tLn2ZbPOlSrL8IVunNURsyAF7+0CDDw+QMR6sa/WlSrLMDldtrlvtF/BENA1uFKUCFsCkQ9YztSSFrIgVsAASyEMfqTcnS1LIVphSmLWL08kpYAEcwYUvkkK24hHbIVAnEbDrBlt8WgAcHbLBha9FG3yxkixryLbXNfsFLGIFLICZY06WpJAVsQIWQDJPZb3wRVLIljdim4b6xaqABRBGyC7OHR4vcCpLUsiKWAELIGFsuqRRyJIUsiJWwAJI5qms8QKSQjbCiBWtAhZAdLj0RVLIilgBCyCZp7IufZEUsiJWwAJIZMjWVlc9WNfqVJakkA2D5kK1gBWwAJzKkkxhyBarZqX3l+maQi7zAXvbYKtvVQBlx6wsyehtTW/IZjxiq5oGN/gmBVAxttSdffhUVsySjMiFG9IZss2FGgELABVm08IGIwYkhexUWFeoFbAAEANGXvuq2+hUlqSQFbECFkDyMGJAUsiK2GMC9vbCZt+QABKBEQOSUbh5YUfVAxeeJWKTZNNQV1Vjodo3I4BEMbLFYOGQL1+SofnQoq7kh+zagQYBCwAxx7wsSSGbwYgVsADELEmmLGTTHrECFkBqY3Zhh5glmd2QbRpsTHHA9glYAKnmwUtqxSzJEOwb2YySKNYNtqQ2YNcUcr7hAIhZkkxjyKYxYgUsADErZkmmPGTTFrECFgAOx6wLYCTTHLJpilgBCwBHY5sBydSGbNPgRgELAFmJ2ZFHEwQtyRSEbBoiVsACwORj9u3nbMUsyQSHbNIjVsACwPQIYvahS7aJWZLJDNkkR6yABYAQTmcX1oyZmxW0JJMRsqUYbBewAACjBiQTFbKlIOwQsACAozh6RZegJfl2yD50yQdE7PQcqlpbqPENAwBOZ0lWxKFYhGzCIlbAAoDTWZJCNlERK2ABIBans7XV4zYbCFpSyFYkYvMCFgAwvaBdnKtqX3ijcQNSyJY/YpuG+gUsAGDGvD1uIGjJrIXs5rrVIvZoh6tuG6j3zQAAgpZkrB0ue8jGOGKHq24faPBNAACClqSQTUrEClgAELQkhWyiIlbAAkBmgnbh+jFBK2pJITuFiI3ZKayABYAM0r6wZmTLgbVdZHpCtr2uOTMRW7VusMVvcgDIetAeeSVsc+l/DglaUsjGOmIFLABgQkbHDh5a2OWUlhSysYpYAQsAmPoprVlaMtMhK2ABAMmNWrO0ZGZDVsACAFLDkdEDUUumO2TXFHICFgCQzlPa2mpRS6Y1ZCsUsQIWAFCxqH2wruVQ1B7ZfCBsycSFbAUiVsACAGJDELXBTK2LYmTCQrbMEStgAQDxPq1dnKt66CP1E4wgCFsyqpAtVs2KdcQKWABA4k9r7aolo7B16iFbpoitum2w1W9BAEA6TmvHzNYaQyBDcuGGqYVsc6Em8oBtGtzgNx4AIFNhe/SJrbglQw/ZdYVaAQsAQIRhO/IYw6INZmzJMEM2wogVsAAATBS3C2tGLo85tSVnELIRRayABQBgGqe2YzcjiFtm2YcWdVU9cOFZZY3YqqahbX4bAQAQctwe/+RW4DKDIRt2xDYNdVU1Fqr91gEAIOrAXVjz9szt6F7bo14hE7dMcciGGbECFgCAeJzejp27ffvhhj4nuExsyG6orY4mYgUsAADJPME9MqJwzCmuyGW8LnuFHrECFgCA9J3iHhW5E44qiFyW94na4G++jrB2oGGGAdsnYAEAyOBJ7rcXNhw1rnD801yxy5DGCkqftVAiNgjYNYWcn2YAAHB06NbmjmxVGH+iK3Y57Yita3/7QzbdZ2cFLAAAmFnoVh8TuyNrxBa2HYrd415GE7yZ9ZKj17iWorQgYAEAQCKCd+wow4N1rcdG73FPeYVv0g3+eh/FusEWAQsAAFIWvrkj87vBSe/b4XvotPfIeMOk4lcEx+Fi17cXXnTMX+dSoHYJWAAAIH7HnfqOBvDouMPo6e8xEXzC0QcxPPNT2M0T/wVrLlRX3T7YWorV4QkCdnjkKVkBCwAAMPkQHhvDo2MQY0+Ej5wKj4vio8J4UifEaY/lH1e1Lz5Jhwahum6wZSRabx/cXHXbYGvVup/X+jQCAADEIpBzEwby2Eg++uS45egT5MOODeZjT5TDCOiZxPbYf23zyN8UAAAAAKGF9BEPzx9P5OhIxvE8OrYDm6u+Vbf6ePH6/wHsFA4LM9h6QwAAAABJRU5ErkJggg==;" vertex="1" parent="1">
                    <mxGeometry x="1635" y="588" width="40" height="40" as="geometry"/>
                </mxCell>
                <mxCell id="202" value="" style="rounded=1;whiteSpace=wrap;html=1;fillColor=#b1ddf0;strokeColor=#10739e;" vertex="1" parent="1">
                    <mxGeometry x="1245" y="1093" width="1040" height="470" as="geometry"/>
                </mxCell>
                <mxCell id="203" value="" style="rounded=0;whiteSpace=wrap;html=1;fillColor=#b0e3e6;strokeColor=#0e8088;" vertex="1" parent="1">
                    <mxGeometry x="1288" y="1253" width="972" height="244" as="geometry"/>
                </mxCell>
                <mxCell id="204" value="&lt;span style=&quot;font-family: &amp;quot;Segoe UI&amp;quot;, &amp;quot;Segoe UI Web (West European)&amp;quot;, -apple-system, BlinkMacSystemFont, Roboto, &amp;quot;Helvetica Neue&amp;quot;, sans-serif; text-align: start; background-color: rgb(250, 250, 250);&quot;&gt;&lt;b style=&quot;&quot;&gt;&lt;font style=&quot;font-size: 21px; color: light-dark(rgb(10, 121, 240), rgb(237, 237, 237));&quot;&gt;Orchestration&lt;/font&gt;&lt;/b&gt;&lt;/span&gt;" style="whiteSpace=wrap;html=1;rounded=1;arcSize=50;align=center;verticalAlign=middle;strokeWidth=1;autosize=1;spacing=4;treeFolding=1;treeMoving=1;newEdgeStyle={&quot;edgeStyle&quot;:&quot;entityRelationEdgeStyle&quot;,&quot;startArrow&quot;:&quot;none&quot;,&quot;endArrow&quot;:&quot;none&quot;,&quot;segment&quot;:10,&quot;curved&quot;:1,&quot;sourcePerimeterSpacing&quot;:0,&quot;targetPerimeterSpacing&quot;:0};" vertex="1" parent="1">
                    <mxGeometry x="2210" y="383" width="290" height="110" as="geometry"/>
                </mxCell>
                <mxCell id="205" value="Text" style="text;html=1;align=center;verticalAlign=middle;whiteSpace=wrap;rounded=0;" vertex="1" parent="1">
                    <mxGeometry x="2700" y="423" width="60" height="30" as="geometry"/>
                </mxCell>
                <mxCell id="206" style="edgeStyle=entityRelationEdgeStyle;html=1;startArrow=none;endArrow=none;segment=10;curved=1;sourcePerimeterSpacing=0;targetPerimeterSpacing=0;exitX=0.5;exitY=1;exitDx=0;exitDy=0;entryX=0.951;entryY=0.003;entryDx=0;entryDy=0;entryPerimeter=0;" edge="1" parent="1" source="204" target="175">
                    <mxGeometry relative="1" as="geometry"/>
                </mxCell>
                <mxCell id="207" value="&lt;div style=&quot;text-align: start;&quot;&gt;&lt;span style=&quot;font-family: &amp;quot;Segoe UI&amp;quot;, &amp;quot;Segoe UI Web (West European)&amp;quot;, -apple-system, BlinkMacSystemFont, Roboto, &amp;quot;Helvetica Neue&amp;quot;, sans-serif; background-color: rgb(250, 250, 250);&quot;&gt;&lt;b style=&quot;&quot;&gt;&lt;font style=&quot;font-size: 22px; color: rgb(0, 204, 102);&quot;&gt;Containerization&lt;/font&gt;&lt;/b&gt;&lt;/span&gt;&lt;/div&gt;" style="whiteSpace=wrap;html=1;rounded=1;arcSize=50;align=center;verticalAlign=middle;strokeWidth=1;autosize=1;spacing=4;treeFolding=1;treeMoving=1;newEdgeStyle={&quot;edgeStyle&quot;:&quot;entityRelationEdgeStyle&quot;,&quot;startArrow&quot;:&quot;none&quot;,&quot;endArrow&quot;:&quot;none&quot;,&quot;segment&quot;:10,&quot;curved&quot;:1,&quot;sourcePerimeterSpacing&quot;:0,&quot;targetPerimeterSpacing&quot;:0};" vertex="1" parent="1">
                    <mxGeometry x="2250" y="933" width="270" height="130" as="geometry"/>
                </mxCell>
                <mxCell id="208" style="edgeStyle=entityRelationEdgeStyle;html=1;startArrow=none;endArrow=none;segment=10;curved=1;sourcePerimeterSpacing=0;targetPerimeterSpacing=0;exitX=0.5;exitY=1;exitDx=0;exitDy=0;entryX=0.955;entryY=0.024;entryDx=0;entryDy=0;entryPerimeter=0;" edge="1" parent="1" source="207" target="202">
                    <mxGeometry relative="1" as="geometry"/>
                </mxCell>
                <mxCell id="209" style="edgeStyle=none;html=1;exitX=1;exitY=0.5;exitDx=0;exitDy=0;entryX=0;entryY=0.5;entryDx=0;entryDy=0;" edge="1" parent="1" source="210" target="212">
                    <mxGeometry relative="1" as="geometry"/>
                </mxCell>
                <mxCell id="210" value="" style="shape=process;whiteSpace=wrap;html=1;backgroundOutline=1;" vertex="1" parent="1">
                    <mxGeometry x="1310" y="1388" width="140" height="60" as="geometry"/>
                </mxCell>
                <mxCell id="211" style="edgeStyle=none;html=1;exitX=1;exitY=0.5;exitDx=0;exitDy=0;entryX=0;entryY=0.5;entryDx=0;entryDy=0;" edge="1" parent="1" source="212" target="214">
                    <mxGeometry relative="1" as="geometry"/>
                </mxCell>
                <mxCell id="212" value="" style="shape=process;whiteSpace=wrap;html=1;backgroundOutline=1;" vertex="1" parent="1">
                    <mxGeometry x="1480" y="1388" width="120" height="60" as="geometry"/>
                </mxCell>
                <mxCell id="213" style="edgeStyle=none;html=1;exitX=1;exitY=0.5;exitDx=0;exitDy=0;entryX=0;entryY=0.5;entryDx=0;entryDy=0;" edge="1" parent="1" source="214" target="216">
                    <mxGeometry relative="1" as="geometry"/>
                </mxCell>
                <mxCell id="214" value="" style="shape=process;whiteSpace=wrap;html=1;backgroundOutline=1;" vertex="1" parent="1">
                    <mxGeometry x="1630" y="1388" width="120" height="60" as="geometry"/>
                </mxCell>
                <mxCell id="215" style="edgeStyle=none;html=1;exitX=1;exitY=0.5;exitDx=0;exitDy=0;entryX=0;entryY=0.5;entryDx=0;entryDy=0;" edge="1" parent="1" source="216" target="218">
                    <mxGeometry relative="1" as="geometry"/>
                </mxCell>
                <mxCell id="216" value="" style="shape=process;whiteSpace=wrap;html=1;backgroundOutline=1;" vertex="1" parent="1">
                    <mxGeometry x="1780" y="1388" width="120" height="60" as="geometry"/>
                </mxCell>
                <mxCell id="217" style="edgeStyle=none;html=1;exitX=1;exitY=0.5;exitDx=0;exitDy=0;entryX=0;entryY=0.5;entryDx=0;entryDy=0;" edge="1" parent="1" source="218" target="219">
                    <mxGeometry relative="1" as="geometry"/>
                </mxCell>
                <mxCell id="218" value="" style="shape=process;whiteSpace=wrap;html=1;backgroundOutline=1;" vertex="1" parent="1">
                    <mxGeometry x="1930" y="1388" width="120" height="60" as="geometry"/>
                </mxCell>
                <mxCell id="219" value="" style="shape=process;whiteSpace=wrap;html=1;backgroundOutline=1;" vertex="1" parent="1">
                    <mxGeometry x="2080" y="1388" width="150" height="60" as="geometry"/>
                </mxCell>
                <mxCell id="220" value="&lt;b&gt;&lt;font style=&quot;font-size: 13px;&quot;&gt;Install_libraries&lt;/font&gt;&lt;/b&gt;" style="text;html=1;align=center;verticalAlign=middle;whiteSpace=wrap;rounded=0;" vertex="1" parent="1">
                    <mxGeometry x="1350" y="1403" width="60" height="30" as="geometry"/>
                </mxCell>
                <mxCell id="221" value="&lt;b&gt;&lt;font style=&quot;font-size: 14px;&quot;&gt;Load_data&lt;/font&gt;&lt;/b&gt;" style="text;html=1;align=center;verticalAlign=middle;whiteSpace=wrap;rounded=0;" vertex="1" parent="1">
                    <mxGeometry x="1510" y="1403" width="60" height="30" as="geometry"/>
                </mxCell>
                <mxCell id="222" value="&lt;font style=&quot;font-size: 14px;&quot;&gt;Clean_Data&lt;/font&gt;" style="text;html=1;align=center;verticalAlign=middle;whiteSpace=wrap;rounded=0;fontStyle=1" vertex="1" parent="1">
                    <mxGeometry x="1660" y="1403" width="60" height="30" as="geometry"/>
                </mxCell>
                <mxCell id="223" value="&lt;b&gt;&lt;font style=&quot;font-size: 14px;&quot;&gt;Prepare_data&lt;/font&gt;&lt;/b&gt;" style="text;html=1;align=center;verticalAlign=middle;whiteSpace=wrap;rounded=0;" vertex="1" parent="1">
                    <mxGeometry x="1810" y="1403" width="60" height="30" as="geometry"/>
                </mxCell>
                <mxCell id="224" value="&lt;font style=&quot;font-size: 14px;&quot;&gt;Train_models&lt;/font&gt;" style="text;html=1;align=center;verticalAlign=middle;whiteSpace=wrap;rounded=0;fontStyle=1" vertex="1" parent="1">
                    <mxGeometry x="1960" y="1403" width="60" height="30" as="geometry"/>
                </mxCell>
                <mxCell id="225" value="&lt;b&gt;&lt;font style=&quot;font-size: 14px;&quot;&gt;Evaluate_models&lt;/font&gt;&lt;/b&gt;" style="text;html=1;align=center;verticalAlign=middle;whiteSpace=wrap;rounded=0;" vertex="1" parent="1">
                    <mxGeometry x="2125" y="1403" width="60" height="30" as="geometry"/>
                </mxCell>
                <mxCell id="226" value="" style="rounded=0;whiteSpace=wrap;html=1;" vertex="1" parent="1">
                    <mxGeometry x="1640" y="1266" width="263" height="77" as="geometry"/>
                </mxCell>
                <mxCell id="227" value="&lt;b style=&quot;&quot;&gt;&lt;font style=&quot;font-size: 21px;&quot;&gt;Docker image&lt;/font&gt;&lt;/b&gt;" style="text;html=1;align=center;verticalAlign=middle;whiteSpace=wrap;rounded=0;" vertex="1" parent="1">
                    <mxGeometry x="1697" y="1274.5" width="196" height="60" as="geometry"/>
                </mxCell>
                <mxCell id="228" value="" style="shape=image;imageAspect=0;aspect=fixed;verticalLabelPosition=bottom;verticalAlign=top;image=data:image/jpeg,/9j/4AAQSkZJRgABAQAAAQABAAD/2wBDAAsJCQcJCQcJCQkJCwkJCQkJCQsJCwsMCwsLDA0QDBEODQ4MEhkSJRodJR0ZHxwpKRYlNzU2GioyPi0pMBk7IRP/2wBDAQcICAsJCxULCxUsHRkdLCwsLCwsLCwsLCwsLCwsLCwsLCwsLCwsLCwsLCwsLCwsLCwsLCwsLCwsLCwsLCwsLCz/wAARCAEKAdsDASIAAhEBAxEB/8QAHAABAAIDAQEBAAAAAAAAAAAAAAMFBAYHAgEI/8QAWBAAAQQAAgMHChAKCQUBAQAAAQACAwQFEQYSIRMUIjFBUZIVFjI1VGFxgZGxByNCUlNVcnR1lKGys8LR0iQzNDZic4KTosEXJUNFY4O00+FERqPD8Cak/8QAGgEBAAIDAQAAAAAAAAAAAAAAAAECAwQFBv/EADYRAAIBAgIFCgYCAwEBAAAAAAABAgMRBFESEyExQQUUMlJhcYGRobEVM0KywfAi0SOC8UPC/9oADAMBAAIRAxEAPwDriIiAIiIAiIgCIiAIiIAiIgCIiAIiIAiIgCIiAIiIAiIgCIiAIiIAi0bHNOLWD4rdw5mHQzMrCDKR1h7C7dImS7QGEcvOq3+ku77UV/jcn+0psyukjpaLmn9Jd32or/G5P9pP6S7vtRX+Nyf7SWZGmjpaLmn9Jd32or/G5P8AaX1nok3XyQs6k1xuksUee+ZNge9rM/xffSzGmjpSIiguEREAREQBERAEREAREQBERAEREAREQBERAEREAREQBERAEREAREQBERAEREAREQBERAEREAREQBERAEREAREQBERAEREAREQHFtOPzlxv3NP/AEkSl3lgjbVWkabjLPX3wH7pJq6oDiRlr557FFpx+cuN+5qf6SJZD+3mGfBknmeuhhUrO64o4fKLkmrNrY3sdt1jDA0fNSO51Pm1H2t6hu6v19f1xOvlkp3VsCbYxCvvF5dRrmxId2fk8aodkzhqub2lqfC/8is+XtjpR8Gn6Nq2VZpbFw4LJs0HFptKUuPF8Glnkz42HAHDCyKEg6pOe2LOV/A1Dlw+GqmzFHDijoohqxx4hA1g2nJonbkNqsYuLQ73U/nWDe7bzfCUP07Fgr2cL2W9eyZt4O6qtXb2Pe29zt7I74iIuaegCIiAIiIAiIgCIiAIiIAiIgCIiAIiIAiIgCIiAIiIAiIgCIiAIiIAiIgCIiAIiIAiIgCIiAIiIAiIgCIiAIiIAiIgCIiAIiIDi2nH5y437ip/pIlkP7eYZ8GP8z1j6cfnLjfuKn+kiU7yOrmGjMdrJPM9dDDbvFHD5R6S7peyKtvaWp8MHzLOl7Y6UfBp+jasBrh1Fp7f742eRZ0pHVHSjaNmGnPbxeltWdcPD8mk978fuRHFxaHe6n86wb3bib4Sh+nYs2IjV0N2ja6fLv7QsG923m+Eofp2LDX+X4r2RtYT5z7n9x3xERc474REQBERAEREAREQBERAEREAREQBERAEREAREQBERAEREAREQBERAEREAREQBERAEREAREQBERAEREBQaXXLtHAb9qnO+CxG+qGSMDdYB87GEDWB481y/rq0u5MXtHwCE/UXSdOfzZxP9ZS/1US5bhb3Rx4pI3LWZA17cxmMxr8YWejBTlos08VWdGGmlfd6uxkddel3txb6MP3E669Lvbi30YfuKRlyw92DZmPK5nu/B5R6zmXg37Qr4nLnHr1rIii4OzVJy2hbPN4db07L5nOWPrN20F59tssz5116Xe3FvoxfcTrq0u5cXt+MQj6iyN8z78gr5s3N9Td3cHbr6ufHzLCsWJbOFRyyZa5tZHVGQyGuOJJYeKTs93Zl/wBLQx1Scopxsnbjnfs7CXrr0t4hjFs+BsR+ovvXVpd7b2+jF/tqStbnqYLh74CzWfedC7Xbr8F8j88lnSXrTbeOwjc9SjUE0HB2h+qHcM8qmOGi0m5enZfMrLH1VJpQ2Jvjk0su0reurS723t9GL/bTrq0u9t7fRi/21nMxG47rdz3L+sHO3zwOMB2XA5lG/FLorY7MNy16VpsNfgbNQvy4Yz2pzeFr6Xp2XzIWPqt20F59tssygt2rV6eW1clfLPMGiSSTIOcGsDBnkByABWIx/EgA0R1dgAHpTs8hs9cmkBLpKLjxuotcfCXuKzTYlF2pWGruclYyu2bdYa3KrU6bhOUYytuKV60asISnBSum9r3W38DC64MS9iq/uX/eTrgxL2Or+5d95ehiFs0op/S90db3B3pezU7wWQ+1OLOJxDU1K1XdYuDt19UO2lZVpP63+7czWtBNp0lx45NdnaYvXBiXsdX9y77yrnSvsXY536uvNdrvfqjIZmZvEFcMu2HDByTHnbdIJuD60+o5lWWe2TvhCD6Zi1699FNyb/5c3MG4Ko4qCjs4djtkuJ39ERc87wREQBERAEREAREQBEWo6c44/DMNbTrvLbmJa8Qc0gOhrtHpjxlynY1vhPrUIbttMHFtP4qWKx1qcEdqlXc6O/KHZPlfnkRVcDq5M5c+PvZaztvw7EsPxWrHcozNlgfs2bHsdyskadoI5QuJYfhkt2OeQP3NjPS4cxmJJBx594f/AHEpsNxTFtHb5mhza8ENs13k7lYj5nZfwkcXyOzSoyjFSa2M1YYmEpumntR3RFW4Ni9DGaMV2o7guJbLG4+mQyjso3gHj8/HyqyWE2wiIgCIiAIiIAiIgCIiAIiIAiIgCIiAIiIAiIgCIiAIiIAiIgCIiA1nTn82cT/WUf8AVRLleH/iMY97fVeuqac/mzin6yj/AKqJcrw/8RjHvb6r1s4bp+fsc/H/ACvFe6Jouy0Z/b86if8AkeO+/G/PUsXZaM/t+dRP/I8d9+N+ct3+n7I5C3+K+4yx2zq/Bo+YsJ3aaH32766zB2zq/Bo+YsN3aaH32766iXHx/Ap9KP8Ar+TJd2jwv4UH0j1ly9sNLPg/6gWI7tHhfwoPpHrLl7YaWfB/1ArrcvD2ZWXSl3y+5EMX/Zfhk+eoZPyHSr3+z6QqaH/svwyfPUMn5DpV7/Z9IVV/j8Ilb/FfefMf7PDveDPO5ZDu2lH3i76yx8f7PDveDPO5ZDu2lH3i76yldOXeiH8mPdIrx2rg+ET5isyT8tx33l/6wsMdq4PhE+YrMk/Lcd94/wDrCqty8PZl5dJ9790RM4tGvdTedYtntm74Qg+masqPi0a91N51i2e2Z+EIPpmLFW6HivZGxhfneD+47+iIued4IiIAiIgCIiAIiIAuK6YX34jpDiOqdZlWRuH12k57YTquA8L9Yrs0kjYo5ZXdjFG+R3gaC4rg2H61vEqz5NplnfZkz5TtlPyrJSjpSUczXxFTVwcslc2ivA2tBBXbxRMDT33cp8ZUN+jFei1Tk2ZgJhk5j613eKy0Xp5QjKOg1sPBqtOM9YntNewTGb2jmJbtqvMWsIcRreyxg8YHrm8bT4uIrtdexXtQQWa8jZIJ42yxSM2texwzBC49jdISx77jHpsIAmy9VFyO8Xm8Cv8A0O8ZdrWMCnfm0B1vD9Y9iM/ToR88eErzuIoulPRPaYLFLEU1Lz7zpCIi1joBERAEREAREQBERAEREAREQBERAEREAREQBERAEPh8qKOb8TP+rk+aUBHvuh3VW/fR/am/KPdVb99H9q/P0EBmdHFGxpe4bAchxDPjKy+pN/uZvSjWZUZSV4q5qzxVOm7TaXezu2/KPdVb99H9qb8o91Vv30f2rhHUm/3M3pRr71Jv9zN6UanUT6r8inPqPWXmjqem1ipJo3ibY54HuL6RDWSsc45WYzsAOa5lhrHvhxVjBm59drWjnJ1+dQHDL0bXSOgaGsYXkh0fEBrHiXmnWxCwZd5hxczV19WRsfHnlxkLJSjKnNXizBiKlOvTejJWVtvDfcs46loOwPOE5Vtfd9o4Bco307hrYrGIjr2LIkiGszhtzzzzzXjqbpHt2S7OP8Jb99fepmknrJvjLfvrc/1f6rZHLSs762P6755syt72d/wS7mdzbR3JxzHZ6uWWXGsKeGaDCYo5majxbJIzB2HXI2heupukXNN8Zb99QW6eL14g+2HiPXa3hTB/CIJGzNVqSei3otb/AFt/RejBacVrIu1t2/Zft7TPhrWbWC4ayvGZHMxAzP2gZMbI/M7VmyU7rrekUwgduduoIaxzb6Y/VDcstbzqirQ4vJEHVnzCEl+qGTlg2HI8HNTb20g9ks/GT99TGV4r+L4e1su0rUp2nJayK2vf2tPPsLOOhfHWvnA7Knr754TfSwXZ8+3xKN+H4g6npBGK790tXGy1xrN4bA7PPPPJYG9tIPZLPxk/fX3e2kHr7Pxk/fVr8NF/qtkVUbO+tj+u+eZJpA1zJKDXDIig0HwhzgVlGCc3qlgRncW1DG5+Y7Ih2zLjVJbZcic3fheXlmbdd+6HUzPLmVnDDdIiA4CbVIBH4S3iP7axxm3OT0Xw9DNOklSitNLY1d8b5bT6KV7eMUO4HdW3DM5mszZHz555LJfWsmzi0gjOpPW3OI5jhP1Q3JY3U3ST1s3xlv3186m6R803xlv31dO30v8AVbLtMTV23rY8fVrt7CZlW2OogMRzrmQz7RwMyq+wP6zOzL+sYTmdgAEzdpWV1N0j9bN8Zb99YD4LO+XV3gmxuro3AuBzcOPNx2LDVu4qOi1391jawiSm5aadk93ffM75vyj3VW/fR/am/KPdVb99H9q4T1Jv9zN6Ua+dSb/czelGtXUT6r8jo8+o9ZeaO778o91Vv30f2pvyj3VW/fR/auEdSb/czelGhwu8GlxgbqtBcTrR8QGZUaifVfkOe0X9S80d5ZZqSODI54XvIOTWSMc45ceQBzUy4voMGjSjDCAB+D3+ID2FdoWJqxtxd0ERFBYIiIDBxdxbhOMuHG3Drrh4oXFcUwQDf8Xegmy8gC7heiM9HEIBxzVLEQ8L43NXDMGdq36mfq2Sx+Mx5/yWxhvmR70aWOV6Eu5m2IiL054MZNIc1wza4FrgeUEZELVIZ5cExevZaTnh11snuoAcnjxsJW1rWsfjG+2uP9tWZn4QTGudj4JwUsjs8kVHGq4Zr2O5tc17WvaQWuaHNI4iCMwV6XLoPRCnqYdh1SvhzXzVqlavJPZmOq90UYYXCONue3L1ywpvRA0qlJLH0YBzRV88vHM5y4Wiz1umjryLjI070uBz6oQnvGrWy+Rqza/oiaSR5CaHDrDeUmOWN/ljfq/wposaaOsotFoeiNhUxazEadioTkN0hIsw587tUB46JW307+H4jCJ6NqGxDxF0LgdU8zhxg94hCyae4y0RFBIREQBERAEREAREQBERAEREAREQBRzfiZ/1cnzSpFHN+Jn/AFcnzSgOCYX+W0/2vo3LJkfJvPGjryawugA6xzAz4gVjYX+W0vC76Nymk/Isc9/Dzro0vl+fsefxKTr+XuZus7qlENZ2XU7PLM5Z6vHksNskvU/DjrvzOIOBOscyM+IlZX96RfBv1Fht7W4b8Iu+cs7lv8fwakIqy8PyZhLjZ0gBcSBX2AkkDgO4gosIJFXSAgkEUmkEHIg5ScRCl/6rSL9R9Ryhwj8k0h95N80ij/0Xj+S8V/hl/p+DKhkl1tDvTH+mB+6cJ/C4Xq+dQySzbw0mO6y5sxCMMO6OzYNbiBzUkPZaFe5k+coJO1+lPwjH84qbvb3P2RRRjfxX3lg18nVek3dHavUfW1dY5a+px5cWarnue/R+Avc57uqDtryXH+05SrBvbmh8Cj6NVx/N2v8ACDv/AGJPc/H8E0orSj/r+TwHObhdHVc4Z3cjqkjMa79mxZEjn77x0aztVtQFo1zk06o4ljf3XQ9/fXesiT8r0g95j5oUJ7F4ezLSitKXfL7keGOk/wDznDfwtfX4R4W3lXh8ku9ceOvJmy00NOscwNfiBXpn/bXhf51G/wDJdIPfbfnqHJ28PwiVCN/H/wCz5jPHU95t+c5XTnP6s4azXdqnDXktzOrnk/blxKlxnjqe8m/Ocrl/bvDfgyTzPVo9OXfEpUX+KHdIrGyz9Rqr91l1zi2oX7o/MjLiJzzyWfLJKMQ0lG6P1W4cTGNY5NOo3awcirW9panwwfMs+XtjpR8Gn6NqKTsvD2YlBXfj9yPEUkupoh6ZJ6Y6bdOG/hbfV7dqxZO303v2b5rlPFxaHe6n86gk7fS+/ZvmuVZ8O9eyL0420u6XuxK+XctIDryZtsRhp1jmwa/EFkMc/f8Ahg1nZGg0kZnJxydtIWNL+K0i98M+lU7O2GFfB7fmOVk9q8PdmOUVovuf2oxA+XqbGd0fmcRAJ1nZ5avFnms4Oeb+LtLjqimMgSchwOQKvHayP4QHzSs8dsMY95/UCiMt3h7MmpFbfH3RPoL+c+F+97/0K7MuM6C/nPhfve/9CuzLkyPTU+iERFBkCIiALg+IQOwfHLsORAo4hI5ufLDr67T42kLvC5j6IuFOjs1MYjb6VZa2pbI4mzRgmNx90Nn7PfV4OzujFVipRszzmDkQcwQCDzg7QUVZg1sT1xC4+m1gG7eN0XE13i4j/wAqzXqKc1UipLieBrUnRm4S4BVGKUZrdiu5r2sjjg1C521xOu47Gj7VaveGDPl5BzrFJJJJ4zxpUpxqLRluIpVp0ZacN5Xx4VRZlr68h53vLR5GZLJbWqM7GvCP8tv81MirGjCPRRM8TVqdKTfiedyh9ij6DfsUT6dKTsq8R74aGnytyU6K7hF70Y41Zx2xbRWzYRA7MwPdGeZ/Cb9qr4bGJYPbMlaw+tZi2OfA/YW9lk8cRHeIV3btR1Itc5GVwIhZ653rj3gsPRzBZtIcWZBIHGnC5trFJDxGPPNsOfPIfk1lx8bGlB2gtp6bkqeIqpyqO8eGZ1jRy5it/B8Pu4nHDHZssM2UTXNBhcSY3ua47CRkT4VcL4AGgAAAAAADYAByBfVyz0IREQBERAEREAREQBERAERRyyxQRSzSvayKGOSWV7jsYxgLnOPgQEiKi679EPber/5Pup136Ie29X/yfdQi6L1RzfiZ/wBVJ80qm679EPber/5PurxJpdoi6OVoxetm5jwNku0kHmYpF0cgwv8ALaPhd9G5TSfkWOe/h51j4c9kVuq+Rwa1mtrFxyA4BG1WD4aJhvQ9UK/4TOJtbZwNueWWsujRV4W7/Y8/i5aNZNp8ODe53Z7/AL0i+DPqLCb2uw34Rd85Z+dHfLbO/a/Brb21dYbdmWvnrKEQ0xWq1+qFf0iwZ9fZwsznllrLO43vtXHis0asZ2tdPhwfC/Z2o9/9VpF+o+o5Q4T+SaQe8m/NkWQ91JpxScW4HOtQOaIw7aCGObkCsfB31xFi0U1iKHfMDImukdz64JA7yo7KolfP1uXjd0Zuz+ng+FrmTD2WhXuZPnKCTtfpR8Ix/OKzmR4a12CHqpUIw0EEZt9Oz8ez5V4dBhprYpX6rVPw6yLGtmPS8jnq5ayvoO29eayS9zEqiTTs964PrN5ZEje3ND4FH0arj+btf4Qf/wCxWueGi5Bb6p1PSqe9Nz1hwuDq62esq622nXwmKpFdgsyNtiUmPIHJweex1iomrKTvnx7i1F3lGNnw4Phe/ujH/uuh7++u9ZEn5XpB7zHzQo4W1ZqFWGS1FC+OwZiH7Tse7ZkshwpulxCXf1f8Li3LLg8Dg6ueettVYq6Tvlx7GWnLRlJNPe+DzT9kY7P+2vC/zqN/5LpB77b89ZTWUW9TPw+v+BZ83pmZz9dsXh0NIw34t/wfhcwlz4PByOeWWspcXbh5rKxGsSd7PeuD618sjHxjsqvvIedyuX9u8M+DJPM9UmLPikdAIpGS6lYRkxnMZguV7umHOu1LxxGoDFVNcxazc9oIz1tbv8yQac5beKJq3VGF090lufEp29panwv/ACWfL2x0o+DT9G1eRWw0UoafVep6XcNvdMm7f0MtZZDxhrrGK2OqdQb+rb31NYel8ENzz1tqsotJbVw4rJlJVE3dJ8eD4tPLJGHFxaHe6n86gk7fS+/ZvmuWeyPDWjBR1UqHqa6TPa303XOfrtnyqsfLCcalmErNxNyRwkz4BaQcjmqT/jo3fFeyM1K83Kye6XB8W37M9y/itIvfDPpVOzthhXwe35jl8dHSczEG7/r/AIZK2TPg+l5O1suyUgNEWKs+/a/pFcQaus3hbCNbPWV1GzW1cOKzbMLneLVnx4PJLLNFeO1kfwh9UrP/ALxxj3mPmBQ7hS3q2t1Rr8GzvjX4O39DLWU5dTbNfsb8gcbEBjDA4bCGZcahRta7XDismTOek3ZPbfg+LXZ2E2gv5z4X73v/AEK7MuI6I3KVDHqFu5MyCvFBba+SQOIDnx6oHBBO1dR679EPbet5JPurky3npqb2F6iouu/RD23q+ST7q+O0w0PaNuLQH3LJnH+FhVTJdF8i1SfT7RKH8XPZsfqK0gz8c2oqW56JQycMPwt2fqZLsoHlihz+kU2ZGkjoq1jSjGdF4KV3DsSm3d88ZY6rULX2GuGTmuJ7FpByI1j4jxLnOIaV6UYo50T7r4o3lwFag10LSHbNXNmcp8bysStgt6bJ0oFdh2kycKQ/sD+ZWWnRnN2irmtWxVOkrzdjCry2K88UkGsZg7VjaBm6TPjZkOflW5Me/cY3zR7k8tBfGHB2q4+pBCx6tGlQaXRMzflk6WTbK7vZ/wAgvr3l5zPFyDmXdwtCVFfye88nj8XDESWhHdx4nxzi4knxd4Lyse1cgq7nuge4yAkBmWwDZmcyoOq9Dmn6DfvLNKvTi9GT2mpDCVqkVOMW0zPRV5xemOxZOf2WD6ygfjJOe512+GV5PyMy86xyxVFfUZo8n4iX0lxtPEsK1iFetrNYRNNxarDwGn9N4VQbmI3pBXjMs0jzkK9KNz3u/YhGt5Vs2D6A4zdMcuKuOHVdhMTSyS7IObIZxs+U95aVblDZamjqYbkd30qzv2L+ygo0cX0hv71qt3WdxBmleCIKsXr5S35By/KOyYHgtLAaEVOtm4gmSxO9oEliZ3ZSPy+TmGQ5FPhuF4bhFVlTD67IYW8I6ubnyP5XyPdwiTzkrOXJlJyd2ejp01TVkERFUyhERAEREAREQBERAEREAVRpNKYdH8feOM4fYj/eN3P+at1r+mRy0Zxs88UDelYjaiIe445WqyWnvjjc1uozWJeCRlnllsWX1Htezw+SRfcG/H2j/hMH8aul2sNhadSmpSW08tjsfVo1nCD2K3AqGYFceCRYrjI5bWyL11Au901+jIr2DsXe6/kpVs8yo5Gn8VxGfojXeoF3umv0ZE6gXe6a/RkWxInMqWQ+KYjP0RrvUC73TX6MidQLvdNboyrYkTmVLIj4piP1I13qBd7pr9GROt+73TW6Mi2JE5nSyJ+KYjP0RrvW/d7prdGROt+73TW6Mi2JE5lSyI+KYj9SNd637vdNboyJ1v3e6a3RkWxInMqWQ+KYjP0RrvUC73TX6MidQLvdNfoyLYkTmVLIfFMRn6I13qBd7pr9GROoF3umv0ZFsSJzKlkPimI/UjXet+73TW6Midb93umt0ZFsSJzKll6k/FMRn6I13rfu901ujInW/d7prdGRbEicypZEfFMR+pGu9b93umt0ZE6gXe6a/RkWxInMqWRPxTEZ+iNd6gXe6a/RkTqBd7pr9GRbEicypZD4piP1I13qBd7pr9GROoF3umv0ZFsSJzKlkPimI/UjXeoF3umv0ZE6gXe6a/RkWxInMqOQ+KYjP0RrvUC73TX6Mi+jR+3y2a/iZIVsKJzKjkPimIz9EUTNHh/aWz/lRAfK8rLiwPDY8i9s0x/xJCB5GZKyRZI4WlHdEwzx2Invk/b2I4oYIBqwxRRDmjaG+XJSEhoJJyAXxzg0Zk7FjPeXnbxDiCzpJbEaUpuTuw95ee8OILyNuQ518WNiFje9WRwOUkucUfOC7jPkVZzUIuT4FqVN1JqEd7Ka5JNduiOu0yPmlip02eue925s6Ttq30ehnUybnjFzPIa2UNfLPlyzCptAMJ39i8mIyNzr4U0FmY2OuTNyaB7kZn9pq60vMVJuUnJnvqFKMIKK3I0SP0NMIafTcUxJ45mCrH543KyraA6IQEGSrPaI5bdiV46DC1n8K2pFjuzPooxqlHD6Me50qlatHszbWiZEDlzhgCyURQWCIiAIiIAiIgCIiAIiIAiq7uP6PYcHb8xKrG4Egxtfus2Y/wAKLN/8K0zFvRFLmvhwWs9riCN93A3NvfjgGeZ8J8SmxVySMvTPSKxhGI4G3D5m76rCxNcicSY3wS6jWxSgeuyJHKMgeXbd4JpVg+NtYxkm97xHDqTuAkz4/SncTh4NveC4zNNPYllnsSPlmleZJZJHFz3vPGXErxzc4OYPKDzhWsY9N3P0Utf0ybraM44OaGJ3RnjcuZ4fpdpThwayO6Z4m5ARXhu4AHIHn0wdNWt3TyxiOGYhh1vDIQ63Xkh3WvM9rWOcBk7c3tPz1WxbTTRr+DH0+yP8Fh8jldLXKVplSZ73te4OYWZNIBzzBz2qwOMwcleTxvYPMF28LXpwpKMmeV5QwlWpXc6cbp2LqA9mPAVPtPEta6uTsz3KvEMxlnI5z/kbksafE8SsAtksPDDxxxelt8jFlljaa6O0w0+Sq8ulZGw3MSp02ua54ln5IYiHEe7dxBT17EFqMSwvDmHjHqmHmcOdaUvcUs0Lw+GR8bx6phyPgK1Y4+WleS2G/PkmGhaMv5Zm7otchx64zITRQyjnGcbvK3Z8izGY/TP4yCdh/RMcg+qt2OLpS42OXPk6vD6b9xboq4Y1hR45Jh4YXfyK9dWcJ9ml/cvWXX0+sjBzWt1X5GeirjjeFjidYd4IsvOVC/H6g7CtYf7p0bB8maq8RSX1Fo4KvLdFluvuRPEtekx+ycxDXgj5i8vkPyZBV82I4jYzbLZk1D6lh3NvkZksM8dTXR2m3T5KrS6bS9TZLmJUqQcHPEs3JDEczn/iOGwKto407Xc26QGucXNlaNjMznquA5OZUaLRljajlpLZ2HVhyXRjTcHtb4/0by0se1r2Oa5jtrXNILT4CF9WlwWrdU60Er2Z8YBzafC07FaRaQTtyFivHJ+lG4xu8m0Lcp42EunsOXW5Kqxf+N3XkzYEVUzHsPPZssMPuWuHyFS9WcJ9llHhhetpV6b+pGk8HXW+LLBFXOxvChxOnd7mLL5xWPJpBCPxNWRx55ntaPI3PzqksTTj9RaOBry3QfsXO1Yl3EKlEEPIkny4EDTtz55COIKhnxnEpgWtkELD6mAapy5i/s/lVctSrjtlqa8Tp4fknbeq/Bf2XtLGiXyNukBsjy5kjRwYs/Ulo25cyu2OZK0Pje17DxOYQ4fItHXuOaeB2tDI+N3Oxxb5clgo46UNk9psYjkqFR6VN6L9Dd0WsRY3iUeQeYph/iR6p6UeSzGaQM/tajvDFL/Jw/mt6OMpve7HKnyZXjuV+5/2XaKrbj2GnsmWW/sMd5nqQY1hJ/tZR4YX/wAlnVem/qRrvB119LLBFX9WcJ9llP8Akv8A5rw7HMMHYiy7/La3zvR16a+pBYSu/pZZr4XBo8w51SSaQgZiGp45pM/kYPrKrs4hetZ7rKQw/wBnHwGeDILBPGwj0dptUuS603/LYi4nxWqJ2xOcS0Ah0ke2ON3NkOPvlZTHskaHsc1zTxOaQR8i1Ne45ZYjrRSPYedpI8q1YY+Sf81sN6ryPBxWrlZ9vE2rjWv4jZNmxqwgyBhbBXYzaZHudq8EfpHiX3qne3N8bnMJe0t19XJ7QeYj7F7wS7Qw3E6t+7WktNqh8leKN7GgWDsZK7XB4tuXf2+pWPFYpVYqMDJyfyfKhNzqWvwOwaNYO3A8IpUTkZ8jPcePV2peE8+Adi3vNCuVon9JWE5bcNxDP3Vfz66gl9EusM9wwed3MZrMcfl1WO865lmeh0kjoSx7VupShksW54oIGdlJM8MaO9meM94Ll1v0Q9I5wW1o6dMHPJzIzNKP2pSWfwLVrd7EMQlE161YsSDY1073P1e8xp4I8QU6JVzXA3LSDTo25YquGNe3D47UElqZzS2a3FFK17o42nhBjstvKe9xO6XDNDYhhnge2SGZjZInsObXscMwQV+elsGA6V4tgWUMYbZol2sakxIDCTmTA8ZlvkI73KpaIjPbtO1ItWw/TnRi6GtlndSmJA1LrdVufelbnH5XBbJDPXssEteaKaN3E+F7ZGHwOaSFQyJpkqIiEhERAEREAWHbw3Db41bldk7cstSUuczok6vyLMRAUg0U0PHFgeGDwVo/sX3rV0R9pMM+LR/YrpEIsil61dEfaTDPi0f2J1q6I+0mGfFo/sV0iCyKXrV0R9pMM+LR/Yvh0V0SLXNGDYc3NpGba8YIzGWYICu0QWR+e2RGG1uErQTFM+CUO9c0lhz8asdwr+xR9EKfS6maOkWKtAIbYkZfizGWYsDdHEftaw8Sja4Pa144nNDvKutgtGSaaPPcp6UJRlF9h5FermM4Iss9vBCm3rT7ni6IXlTMObRzjYV0FTjkjizq1N+k/Mj3rT7ni6ITetPueLohTIp1UckY9fU6z8yHetPueLohN60+54uiFMiaqOSGvqdZ+ZDvWn3PF0Qm9afc8XRCmRNVHJDX1Os/Mh3rT7ni6ITetPueLohTImrjkhr6nWfmQ71p9zxdEJvWn3PF0QpkTVRyQ19TrPzId60+54uiE3rT7ni6IUyJqo5Ia+p1n5kO9afc8XRCb1p9zxdEKZE1UckNfU6z8yHetPueLohN60+54uiFMiaqOSGvqdZ+ZDvWn3PF0Qm9afc8XRCmRNVHJDX1Os/Mh3rT7ni6ITetPueLohTImqjkhr6nWfmQ71p9zxdEJvWn3PF0QpkTVRyQ19TrPzId60+54uiE3rT7ni6IUyJqo5Ia+p1n5kO9afc8XRCb1p9zxdEKZfC4N401cckNdU6z8yLetPueLohRugp8Ta8Ph1R8ikc8u7w5l5UaEckZI1KnGT8yLe9b2GLohN71vYYuiFKijVxyL66fWfmRb3rewxdEL4YarGuc6OMNaMzwQplW3rLTnGHZRx5mRx4nOb9iw1nClG9kbGGVWvPRUnbjtPNetZxO9WpUogJ7swigaBwY2ja6R2XIwcJy7DV0P0UrVq0D8Lp2HxRsY+exCx0szwMjI8nlPGqrQXR12HVji12PK/fjAhjeOFVqE6wYf037HP8AAB6lbsuFKV2eshBRRS9auiPtJhnxaP7E61dEfaTDPi0f2K6RVMlkUvWroj7SYZ8Wj+xOtXRH2kwz4tH9iukQWRS9auiPtJhnxaP7E61dEfaTDPi0f2K6RBZFL1q6I+0mG/Fo/sXuHRvRiu8SV8KpQSDbr14hE/yx5FW6ILI+ABoAHEAAOXYF9REJCIiAIiIAiIgCIiAIiIAiIgOe+iPhxdDhmKMbtie6lYI9ZJm+MnwHWH7a0mlJrRFh44zs9ydoXasVoRYph1/D5djbMLow4+oeOEx+zmIB8S4Y0TUbcsM7SySGR9eww+pc12q7yFbWGqaE02c7H0NbTaW/eWa9MdqnvHYV5Rd48k9pkIvDHZ7Dxji769qxgasEREICIiAIiIDJo0LuIzGGqxpLBrSyPOrFE3nc5WEeB17D5K9LG8MtXI2OfJXiOeTQcuyY53g7FYuJyy1NEaba5LRiWJTMvPbsLmMD9WIkch1R5FTaO48cAsW5d6tsx2oo45GboYnt3Jxc0teGu2bTmMvMuVWxc1NqO5HosNydSlSUp7WzOngnrSyQTsMcsZye13Jy5gjZkeRRq6xew7EMO0ZxWWJsNm/VldIxmeqGBwc3Vz25bdnhVKt+jU1kFI4uIpamq6eQREWY1wiIgCIiAIiIAiIgCLy57R3z3lE5zncfFzJcuotnt0g4m7e/yKMknaURVMiSQREQkIix7NkQjJu2QjYPWjnKpOagtKRkp05VZKEd54t2NzBiYfTCOGR6gc3hV/oTo0cVsMxW5H/VlObOtG8bLlqM9lkf7Nh8p9ztrNGtHbOkVx4drswyu8G/ZBIMjjt3vCfXO9UfUjvkLtFevBVhhr142RQQMbFDHGMmsY0ZAABcKtWdSV2eswuGjRhZEqIi1zeCIiAIiIAiIgCIiAIiIAiIgCIiAIiIAiIgCIiAIiIAuY+iDgjobDMcrs9JsmOC8GjYycDVjkOXI4bD3wPXrpyx7dWterWKllgkgsRuilYeVru/zjjClOxDV0cPpza7NzceGwbO+3/hZSx8Ywq5gGJSVJXFwad0qTEarbEBOQd4eRw51jb/AJuVkfyj+a61HFxULTPOYrk+bqOUNzLFStfrbDx+dVW/3+xs8pXrf7vYR0ythYulmacuTqz4eqLZFV9U5MvxLD3y5y8nFJvY4R4dc/zTnlLMx/DcRl6lsipXYtMdjZIG+ANJ/izXuI45cJFeDEJs+5q0pHljZl8qo8dTW5Myx5KrPpNIt3EMGby1o53kDzrHNumHtYJWkk5AtB1czyZr1X0S0ttkF1LcAeN9+dkeX7Ldd/8ACvlnR+bDLe4XZmyPjbFIDAHCJ7SMwQ5+3Lk8SpHFSqy0YIyVMBSoQ0qsn4L/AKXNG5R3tawvFIXS4dZcJPSvxteUf2kf/wB5c8jCzR/QuKQTT41ct12nWFRkG5ySDj1HyNaNnP2Kw0WaphYVJaTNWjyhVow0FuM7E8QdiM7HtjENeGNsFSBuWrFE3iGzZnz/APCwURbMIKCsjRnUdSTlLewiIrFAiIgCIvhIHGckB9RRmQcgz8y8FzjxnxBLl1FslL2jvnvKMvce8OYLyii5dRSCIigsEREARFh2LgbmyE8LiL+Qe5WOpUjTV5GajRnWlowRJYsiHNjcjLzcjfdd9S4DgGIaR23RxufHTieN/XSMwzl3OHPjkP8AD8hn0b0Xv6QyiZ5fXwljs5rQ2SWCDtjq58vO/k757Hr9KlSw6rDTpQshrwt1Y44xkB3zy5nlK4lavKq9p6jC4SNCOzzFCjSwyrXpUomxVoGhsbW8Z53OJ2knjJWWiLWOgEREAREQBERAEREAREQBERAEREAREQBERAEREAREQBERAEREBS6Q4FVx+g+s8iOzGTJTsZZmKXLLI5bdU8Th/MbORwl+BYjPWxTDYJxE4R261mJjzq8YkrvePGw8R83dlr2kmjVPH6wILYcQgB3payPPnuUwG0sPycY5nWTKSjcpauFaIX4I7dXDsPkglGx7YQ0g8rXAbQRyhSdbmjPtTT6DvtWi17OOaL4hNDJE6OVpaLVWYkwTs5HNI2e5cP8AhdAwvFsOxaDdar8pGgGatIQJoT+kOUcxH/Csask0RDR7RocWE0fHHn51PHhGAxHNmFYb46kJ84WaiFbskgZQiyEdSvD+qgiYP4QssPDhsdmO8f5LARSLmeqTSTDjbqCzE3OemHOIA2vgO1zfFxjxrPEkg4nHz+dehPKOUHwhXpzdOSkjHVpxqwcJcTmyK0x3D3UpjZhYN52HEgDPKGU7Sw94+p8nIqbdDzDyrvwqRnFSR5KpRnTk4yJUUW6HmCbo7vK9ymgyVFDrvPL5F5zJ4yVFydBk5c0cZC8mQcgJ+RRIlydBHovce94F5RFBe1giIgCIiAIi+HIAlxAA4yTkEJ3n1eZHxxN1nuybyDlPgCxZbrW5thGsfXuHB8QX3DMJxrH5yyhC6XVdqzWZs2VYPdy5bT3gCVo1sXGOyO1nTw/J06m2exepjWLj5BqNzZG4hoaMy+QnYBs2+Jblo5oJPaMV3Ho3w1tjosPzIlm5QbRb2Lf0PLl2J2fR/Q3CcD3OxLncxPLbZlaA2InjFePiaO/x9/kW0rlTqSm7tnoaNCNKOjFHiOOKKNkUTGsjjaGsYwBrWtAyAaBsyXtEWI2QiIgCIiAIiIAiIgCIiAIiIAiIgCIiAIiIAiIgCIiAIiIAiIgCIiAIiICoxvAsLx2vuFyPKVgJrWY8mz13HlY7m5wdh83KcVwTH9F7Uc5c8Rtf+C4hU1gw58THn1J5wdh767ao5Y4po5IpY2SRSNLXskaHMc08Yc12xSnYrKKZzTCdMa8wZBi4EEuwC3G07g/vysG0HvjZ4FtjXMexkjHsfG8ZxvjcHRuHOHN2Kixr0PK8u6WMDkbXec3GnOSa7jzRSbXN8G0eBaa2bSbRmwYXtsUnOdtinaH1p8uVvHEfCCr3ua8qdjqCLU6OmtKTVZiNZ9d/EZq2csJ75YfTB8q2WrcoX2h1K3Xsd6F4Lx4Yzk/5FJiaaJ0REIPEsUM8ckMzA+KRpa9ruIj/AO4lpGK4TPhsmsNaSm92rFLytz9RJly+db0vL2RysfHIxr43gtex4za4HkIKz0azpPsNbEYeNZbd5zVFf4no9LBrzUA+aDaXQ8c0Y/Q5x8vhVBzjlByIPGDzFdinUjUV4nn6lKdJ6M0ERFkMQREQBERCQi8OlgZ2UjR3icz5AoH3oR2DXPPOeCPtWKVaEN7M1PD1anRizKXl72RjN7ms90dviHGqyW9NsGu2MO2BrMg494Z7VaYdovpTixa+ChJFC/I74xAmvHkeUNe0ynoLUnjYroo6NLkuUvmO3cYkl5ozETdb9J/F4go6tXFsYnMFGvPclacniIZRRZ+ySHKNvlXQsL9DnC4NSTFrMt+UZEwx61eoDzFrDuh8b/Et1r1qlSFkFWCGCBgyZFBG2ONvgawZLQqYidTezsUMHTo7l/ZoeDeh1C3Unx6cTu2O3lVc9lccuU0ux7v4R4Vv0FevWiigrwxQwxDVjiha1kbBzBrdilRa9zdSS3BERQSEREAREQBERAEREAREQBERAEREAREQBERAEREAREQBERAEREAREQBERAEREAREQBQ2KtS3E+C1BFPC/s45mNew+FrhkpkQGkYl6HeC2NaTDZpqEhzO57bFbP3Eh1x4n+Jahe0J0toOL46zLbG7RLh8ucg/ypNSTyZrsyKbsq4pnDWY9pThTtxmtXIi3ZuOJxOd4tWy3W+VWkGnOJsy3xRpzDlMZlhd8hI+RdalhrzsMc8UcrDxtlY17T4Q4ZKls6IaI2i4vwmqxx9VWD6x/wD5y1TpGN0jT49OcOOW7YbbYeUxTRSD+IMWUzTLR13ZdUI/dV2u+ZIrGb0OdGX5mKbEoDyBlhsgH79jz8qwX+hlVP4rGbbf1leB/wA3VU6SK6o9jS3Rc/8AVWB4ak38lX38T0Gv5yPszx2DxTQ1Jg536wFuR/8Atqnd6GcnqccH7VD7J15HoZTcuOM8VA/76tGo4u8WY54dTVpK5qs1qhG9zYrBmZ6mRsMkYPha/aozer8glP7IH81uLfQyHqsdkPuKTR86YqdnoZ4cMt1xfEH/AKuOszzsctrnszT+GUsn5miG/HyRP8bgPMvBvv8AUxMHuiSukx+hzow3LdJsTl59ey1gP7ljVYQ6EaGRZf1WyUjlszWJvKJXlvyKjxdR8TJHk2iuHucfkxCXPIyxMJ5Bqg/LtU0FLHcRy3tQxKyD6pkE259NwDPlXca2FYPTyNTDqMBHEYK8MZ8rRmszbzrDKtOW9m1DDU4dFJeBx6poHpbZ2yw1KTDt1rU7Xv8A3dcP+eFsdL0NcPbk7EcStWDsJjqsZVjz5i468n8YW/osWkzPoIq8O0f0ewoh1DDq0MnsuprznwyyZyfKrREUFwiIgCIiAIiIAiIgCIiAIiIAiIgCIiAIiIAiIgCIiAIiIAiIgCIiAIiIAiIgCIiAIiIAiIgCIiAIiIAiIgCIiAIiIAiIgCIiAIiIAiIgCIiAIiIAiIgCIiAIiIAiIgCIiAIiIAiIgCIiAIiIAiIgCIiAIiID/9k=;" vertex="1" parent="1">
                    <mxGeometry x="1647.5" y="1283" width="62.5" height="35" as="geometry"/>
                </mxCell>
                <mxCell id="229" value="" style="rounded=0;whiteSpace=wrap;html=1;" vertex="1" parent="1">
                    <mxGeometry x="1561" y="1131" width="421" height="92" as="geometry"/>
                </mxCell>
                <mxCell id="230" value="&lt;b&gt;&lt;font style=&quot;font-size: 27px;&quot;&gt;Docker Container&lt;/font&gt;&lt;/b&gt;" style="text;html=1;align=center;verticalAlign=middle;whiteSpace=wrap;rounded=0;" vertex="1" parent="1">
                    <mxGeometry x="1605" y="1149" width="360" height="50" as="geometry"/>
                </mxCell>
                <mxCell id="231" value="" style="shape=image;imageAspect=0;aspect=fixed;verticalLabelPosition=bottom;verticalAlign=top;image=data:image/jpeg,/9j/4AAQSkZJRgABAQAAAQABAAD/2wBDAAsJCQcJCQcJCQkJCwkJCQkJCQsJCwsMCwsLDA0QDBEODQ4MEhkSJRodJR0ZHxwpKRYlNzU2GioyPi0pMBk7IRP/2wBDAQcICAsJCxULCxUsHRkdLCwsLCwsLCwsLCwsLCwsLCwsLCwsLCwsLCwsLCwsLCwsLCwsLCwsLCwsLCwsLCwsLCz/wAARCAEKAdsDASIAAhEBAxEB/8QAHAABAAIDAQEBAAAAAAAAAAAAAAMFBAYHAgEI/8QAWBAAAQQAAgMHChAKCQUBAQAAAQACAwQFEQYSIRMUIjFBUZIVFjI1VGFxgZGxByNCUlNVcnR1lKGys8LR0iQzNDZic4KTosEXJUNFY4O00+FERqPD8Cak/8QAGgEBAAIDAQAAAAAAAAAAAAAAAAECAwQFBv/EADYRAAIBAgIFCgYCAwEBAAAAAAABAgMRBFESEyExQQUUMlJhcYGRobEVM0KywfAi0SOC8UPC/9oADAMBAAIRAxEAPwDriIiAIiIAiIgCIiAIiIAiIgCIiAIiIAiIgCIiAIiIAiIgCIiAIiIAi0bHNOLWD4rdw5mHQzMrCDKR1h7C7dImS7QGEcvOq3+ku77UV/jcn+0psyukjpaLmn9Jd32or/G5P9pP6S7vtRX+Nyf7SWZGmjpaLmn9Jd32or/G5P8AaX1nok3XyQs6k1xuksUee+ZNge9rM/xffSzGmjpSIiguEREAREQBERAEREAREQBERAEREAREQBERAEREAREQBERAEREAREQBERAEREAREQBERAEREAREQBERAEREAREQBERAEREAREQHFtOPzlxv3NP/AEkSl3lgjbVWkabjLPX3wH7pJq6oDiRlr557FFpx+cuN+5qf6SJZD+3mGfBknmeuhhUrO64o4fKLkmrNrY3sdt1jDA0fNSO51Pm1H2t6hu6v19f1xOvlkp3VsCbYxCvvF5dRrmxId2fk8aodkzhqub2lqfC/8is+XtjpR8Gn6Nq2VZpbFw4LJs0HFptKUuPF8Glnkz42HAHDCyKEg6pOe2LOV/A1Dlw+GqmzFHDijoohqxx4hA1g2nJonbkNqsYuLQ73U/nWDe7bzfCUP07Fgr2cL2W9eyZt4O6qtXb2Pe29zt7I74iIuaegCIiAIiIAiIgCIiAIiIAiIgCIiAIiIAiIgCIiAIiIAiIgCIiAIiIAiIgCIiAIiIAiIgCIiAIiIAiIgCIiAIiIAiIgCIiAIiIDi2nH5y437ip/pIlkP7eYZ8GP8z1j6cfnLjfuKn+kiU7yOrmGjMdrJPM9dDDbvFHD5R6S7peyKtvaWp8MHzLOl7Y6UfBp+jasBrh1Fp7f742eRZ0pHVHSjaNmGnPbxeltWdcPD8mk978fuRHFxaHe6n86wb3bib4Sh+nYs2IjV0N2ja6fLv7QsG923m+Eofp2LDX+X4r2RtYT5z7n9x3xERc474REQBERAEREAREQBERAEREAREQBERAEREAREQBERAEREAREQBERAEREAREQBERAEREAREQBERAEREBQaXXLtHAb9qnO+CxG+qGSMDdYB87GEDWB481y/rq0u5MXtHwCE/UXSdOfzZxP9ZS/1US5bhb3Rx4pI3LWZA17cxmMxr8YWejBTlos08VWdGGmlfd6uxkddel3txb6MP3E669Lvbi30YfuKRlyw92DZmPK5nu/B5R6zmXg37Qr4nLnHr1rIii4OzVJy2hbPN4db07L5nOWPrN20F59tssz5116Xe3FvoxfcTrq0u5cXt+MQj6iyN8z78gr5s3N9Td3cHbr6ufHzLCsWJbOFRyyZa5tZHVGQyGuOJJYeKTs93Zl/wBLQx1Scopxsnbjnfs7CXrr0t4hjFs+BsR+ovvXVpd7b2+jF/tqStbnqYLh74CzWfedC7Xbr8F8j88lnSXrTbeOwjc9SjUE0HB2h+qHcM8qmOGi0m5enZfMrLH1VJpQ2Jvjk0su0reurS723t9GL/bTrq0u9t7fRi/21nMxG47rdz3L+sHO3zwOMB2XA5lG/FLorY7MNy16VpsNfgbNQvy4Yz2pzeFr6Xp2XzIWPqt20F59tssygt2rV6eW1clfLPMGiSSTIOcGsDBnkByABWIx/EgA0R1dgAHpTs8hs9cmkBLpKLjxuotcfCXuKzTYlF2pWGruclYyu2bdYa3KrU6bhOUYytuKV60asISnBSum9r3W38DC64MS9iq/uX/eTrgxL2Or+5d95ehiFs0op/S90db3B3pezU7wWQ+1OLOJxDU1K1XdYuDt19UO2lZVpP63+7czWtBNp0lx45NdnaYvXBiXsdX9y77yrnSvsXY536uvNdrvfqjIZmZvEFcMu2HDByTHnbdIJuD60+o5lWWe2TvhCD6Zi1699FNyb/5c3MG4Ko4qCjs4djtkuJ39ERc87wREQBERAEREAREQBEWo6c44/DMNbTrvLbmJa8Qc0gOhrtHpjxlynY1vhPrUIbttMHFtP4qWKx1qcEdqlXc6O/KHZPlfnkRVcDq5M5c+PvZaztvw7EsPxWrHcozNlgfs2bHsdyskadoI5QuJYfhkt2OeQP3NjPS4cxmJJBx594f/AHEpsNxTFtHb5mhza8ENs13k7lYj5nZfwkcXyOzSoyjFSa2M1YYmEpumntR3RFW4Ni9DGaMV2o7guJbLG4+mQyjso3gHj8/HyqyWE2wiIgCIiAIiIAiIgCIiAIiIAiIgCIiAIiIAiIgCIiAIiIAiIgCIiA1nTn82cT/WUf8AVRLleH/iMY97fVeuqac/mzin6yj/AKqJcrw/8RjHvb6r1s4bp+fsc/H/ACvFe6Jouy0Z/b86if8AkeO+/G/PUsXZaM/t+dRP/I8d9+N+ct3+n7I5C3+K+4yx2zq/Bo+YsJ3aaH32766zB2zq/Bo+YsN3aaH32766iXHx/Ap9KP8Ar+TJd2jwv4UH0j1ly9sNLPg/6gWI7tHhfwoPpHrLl7YaWfB/1ArrcvD2ZWXSl3y+5EMX/Zfhk+eoZPyHSr3+z6QqaH/svwyfPUMn5DpV7/Z9IVV/j8Ilb/FfefMf7PDveDPO5ZDu2lH3i76yx8f7PDveDPO5ZDu2lH3i76yldOXeiH8mPdIrx2rg+ET5isyT8tx33l/6wsMdq4PhE+YrMk/Lcd94/wDrCqty8PZl5dJ9790RM4tGvdTedYtntm74Qg+masqPi0a91N51i2e2Z+EIPpmLFW6HivZGxhfneD+47+iIued4IiIAiIgCIiAIiIAuK6YX34jpDiOqdZlWRuH12k57YTquA8L9Yrs0kjYo5ZXdjFG+R3gaC4rg2H61vEqz5NplnfZkz5TtlPyrJSjpSUczXxFTVwcslc2ivA2tBBXbxRMDT33cp8ZUN+jFei1Tk2ZgJhk5j613eKy0Xp5QjKOg1sPBqtOM9YntNewTGb2jmJbtqvMWsIcRreyxg8YHrm8bT4uIrtdexXtQQWa8jZIJ42yxSM2texwzBC49jdISx77jHpsIAmy9VFyO8Xm8Cv8A0O8ZdrWMCnfm0B1vD9Y9iM/ToR88eErzuIoulPRPaYLFLEU1Lz7zpCIi1joBERAEREAREQBERAEREAREQBERAEREAREQBERAEPh8qKOb8TP+rk+aUBHvuh3VW/fR/am/KPdVb99H9q/P0EBmdHFGxpe4bAchxDPjKy+pN/uZvSjWZUZSV4q5qzxVOm7TaXezu2/KPdVb99H9qb8o91Vv30f2rhHUm/3M3pRr71Jv9zN6UanUT6r8inPqPWXmjqem1ipJo3ibY54HuL6RDWSsc45WYzsAOa5lhrHvhxVjBm59drWjnJ1+dQHDL0bXSOgaGsYXkh0fEBrHiXmnWxCwZd5hxczV19WRsfHnlxkLJSjKnNXizBiKlOvTejJWVtvDfcs46loOwPOE5Vtfd9o4Bco307hrYrGIjr2LIkiGszhtzzzzzXjqbpHt2S7OP8Jb99fepmknrJvjLfvrc/1f6rZHLSs762P6755syt72d/wS7mdzbR3JxzHZ6uWWXGsKeGaDCYo5majxbJIzB2HXI2heupukXNN8Zb99QW6eL14g+2HiPXa3hTB/CIJGzNVqSei3otb/AFt/RejBacVrIu1t2/Zft7TPhrWbWC4ayvGZHMxAzP2gZMbI/M7VmyU7rrekUwgduduoIaxzb6Y/VDcstbzqirQ4vJEHVnzCEl+qGTlg2HI8HNTb20g9ks/GT99TGV4r+L4e1su0rUp2nJayK2vf2tPPsLOOhfHWvnA7Knr754TfSwXZ8+3xKN+H4g6npBGK790tXGy1xrN4bA7PPPPJYG9tIPZLPxk/fX3e2kHr7Pxk/fVr8NF/qtkVUbO+tj+u+eZJpA1zJKDXDIig0HwhzgVlGCc3qlgRncW1DG5+Y7Ih2zLjVJbZcic3fheXlmbdd+6HUzPLmVnDDdIiA4CbVIBH4S3iP7axxm3OT0Xw9DNOklSitNLY1d8b5bT6KV7eMUO4HdW3DM5mszZHz555LJfWsmzi0gjOpPW3OI5jhP1Q3JY3U3ST1s3xlv3186m6R803xlv31dO30v8AVbLtMTV23rY8fVrt7CZlW2OogMRzrmQz7RwMyq+wP6zOzL+sYTmdgAEzdpWV1N0j9bN8Zb99YD4LO+XV3gmxuro3AuBzcOPNx2LDVu4qOi1391jawiSm5aadk93ffM75vyj3VW/fR/am/KPdVb99H9q4T1Jv9zN6Ua+dSb/czelGtXUT6r8jo8+o9ZeaO778o91Vv30f2pvyj3VW/fR/auEdSb/czelGhwu8GlxgbqtBcTrR8QGZUaifVfkOe0X9S80d5ZZqSODI54XvIOTWSMc45ceQBzUy4voMGjSjDCAB+D3+ID2FdoWJqxtxd0ERFBYIiIDBxdxbhOMuHG3Drrh4oXFcUwQDf8Xegmy8gC7heiM9HEIBxzVLEQ8L43NXDMGdq36mfq2Sx+Mx5/yWxhvmR70aWOV6Eu5m2IiL054MZNIc1wza4FrgeUEZELVIZ5cExevZaTnh11snuoAcnjxsJW1rWsfjG+2uP9tWZn4QTGudj4JwUsjs8kVHGq4Zr2O5tc17WvaQWuaHNI4iCMwV6XLoPRCnqYdh1SvhzXzVqlavJPZmOq90UYYXCONue3L1ywpvRA0qlJLH0YBzRV88vHM5y4Wiz1umjryLjI070uBz6oQnvGrWy+Rqza/oiaSR5CaHDrDeUmOWN/ljfq/wposaaOsotFoeiNhUxazEadioTkN0hIsw587tUB46JW307+H4jCJ6NqGxDxF0LgdU8zhxg94hCyae4y0RFBIREQBERAEREAREQBERAEREAREQBRzfiZ/1cnzSpFHN+Jn/AFcnzSgOCYX+W0/2vo3LJkfJvPGjryawugA6xzAz4gVjYX+W0vC76Nymk/Isc9/Dzro0vl+fsefxKTr+XuZus7qlENZ2XU7PLM5Z6vHksNskvU/DjrvzOIOBOscyM+IlZX96RfBv1Fht7W4b8Iu+cs7lv8fwakIqy8PyZhLjZ0gBcSBX2AkkDgO4gosIJFXSAgkEUmkEHIg5ScRCl/6rSL9R9Ryhwj8k0h95N80ij/0Xj+S8V/hl/p+DKhkl1tDvTH+mB+6cJ/C4Xq+dQySzbw0mO6y5sxCMMO6OzYNbiBzUkPZaFe5k+coJO1+lPwjH84qbvb3P2RRRjfxX3lg18nVek3dHavUfW1dY5a+px5cWarnue/R+Avc57uqDtryXH+05SrBvbmh8Cj6NVx/N2v8ACDv/AGJPc/H8E0orSj/r+TwHObhdHVc4Z3cjqkjMa79mxZEjn77x0aztVtQFo1zk06o4ljf3XQ9/fXesiT8r0g95j5oUJ7F4ezLSitKXfL7keGOk/wDznDfwtfX4R4W3lXh8ku9ceOvJmy00NOscwNfiBXpn/bXhf51G/wDJdIPfbfnqHJ28PwiVCN/H/wCz5jPHU95t+c5XTnP6s4azXdqnDXktzOrnk/blxKlxnjqe8m/Ocrl/bvDfgyTzPVo9OXfEpUX+KHdIrGyz9Rqr91l1zi2oX7o/MjLiJzzyWfLJKMQ0lG6P1W4cTGNY5NOo3awcirW9panwwfMs+XtjpR8Gn6NqKTsvD2YlBXfj9yPEUkupoh6ZJ6Y6bdOG/hbfV7dqxZO303v2b5rlPFxaHe6n86gk7fS+/ZvmuVZ8O9eyL0420u6XuxK+XctIDryZtsRhp1jmwa/EFkMc/f8Ahg1nZGg0kZnJxydtIWNL+K0i98M+lU7O2GFfB7fmOVk9q8PdmOUVovuf2oxA+XqbGd0fmcRAJ1nZ5avFnms4Oeb+LtLjqimMgSchwOQKvHayP4QHzSs8dsMY95/UCiMt3h7MmpFbfH3RPoL+c+F+97/0K7MuM6C/nPhfve/9CuzLkyPTU+iERFBkCIiALg+IQOwfHLsORAo4hI5ufLDr67T42kLvC5j6IuFOjs1MYjb6VZa2pbI4mzRgmNx90Nn7PfV4OzujFVipRszzmDkQcwQCDzg7QUVZg1sT1xC4+m1gG7eN0XE13i4j/wAqzXqKc1UipLieBrUnRm4S4BVGKUZrdiu5r2sjjg1C521xOu47Gj7VaveGDPl5BzrFJJJJ4zxpUpxqLRluIpVp0ZacN5Xx4VRZlr68h53vLR5GZLJbWqM7GvCP8tv81MirGjCPRRM8TVqdKTfiedyh9ij6DfsUT6dKTsq8R74aGnytyU6K7hF70Y41Zx2xbRWzYRA7MwPdGeZ/Cb9qr4bGJYPbMlaw+tZi2OfA/YW9lk8cRHeIV3btR1Itc5GVwIhZ653rj3gsPRzBZtIcWZBIHGnC5trFJDxGPPNsOfPIfk1lx8bGlB2gtp6bkqeIqpyqO8eGZ1jRy5it/B8Pu4nHDHZssM2UTXNBhcSY3ua47CRkT4VcL4AGgAAAAAADYAByBfVyz0IREQBERAEREAREQBERAERRyyxQRSzSvayKGOSWV7jsYxgLnOPgQEiKi679EPber/5Pup136Ie29X/yfdQi6L1RzfiZ/wBVJ80qm679EPber/5PurxJpdoi6OVoxetm5jwNku0kHmYpF0cgwv8ALaPhd9G5TSfkWOe/h51j4c9kVuq+Rwa1mtrFxyA4BG1WD4aJhvQ9UK/4TOJtbZwNueWWsujRV4W7/Y8/i5aNZNp8ODe53Z7/AL0i+DPqLCb2uw34Rd85Z+dHfLbO/a/Brb21dYbdmWvnrKEQ0xWq1+qFf0iwZ9fZwsznllrLO43vtXHis0asZ2tdPhwfC/Z2o9/9VpF+o+o5Q4T+SaQe8m/NkWQ91JpxScW4HOtQOaIw7aCGObkCsfB31xFi0U1iKHfMDImukdz64JA7yo7KolfP1uXjd0Zuz+ng+FrmTD2WhXuZPnKCTtfpR8Ix/OKzmR4a12CHqpUIw0EEZt9Oz8ez5V4dBhprYpX6rVPw6yLGtmPS8jnq5ayvoO29eayS9zEqiTTs964PrN5ZEje3ND4FH0arj+btf4Qf/wCxWueGi5Bb6p1PSqe9Nz1hwuDq62esq622nXwmKpFdgsyNtiUmPIHJweex1iomrKTvnx7i1F3lGNnw4Phe/ujH/uuh7++u9ZEn5XpB7zHzQo4W1ZqFWGS1FC+OwZiH7Tse7ZkshwpulxCXf1f8Li3LLg8Dg6ueettVYq6Tvlx7GWnLRlJNPe+DzT9kY7P+2vC/zqN/5LpB77b89ZTWUW9TPw+v+BZ83pmZz9dsXh0NIw34t/wfhcwlz4PByOeWWspcXbh5rKxGsSd7PeuD618sjHxjsqvvIedyuX9u8M+DJPM9UmLPikdAIpGS6lYRkxnMZguV7umHOu1LxxGoDFVNcxazc9oIz1tbv8yQac5beKJq3VGF090lufEp29panwv/ACWfL2x0o+DT9G1eRWw0UoafVep6XcNvdMm7f0MtZZDxhrrGK2OqdQb+rb31NYel8ENzz1tqsotJbVw4rJlJVE3dJ8eD4tPLJGHFxaHe6n86gk7fS+/ZvmuWeyPDWjBR1UqHqa6TPa303XOfrtnyqsfLCcalmErNxNyRwkz4BaQcjmqT/jo3fFeyM1K83Kye6XB8W37M9y/itIvfDPpVOzthhXwe35jl8dHSczEG7/r/AIZK2TPg+l5O1suyUgNEWKs+/a/pFcQaus3hbCNbPWV1GzW1cOKzbMLneLVnx4PJLLNFeO1kfwh9UrP/ALxxj3mPmBQ7hS3q2t1Rr8GzvjX4O39DLWU5dTbNfsb8gcbEBjDA4bCGZcahRta7XDismTOek3ZPbfg+LXZ2E2gv5z4X73v/AEK7MuI6I3KVDHqFu5MyCvFBba+SQOIDnx6oHBBO1dR679EPbet5JPurky3npqb2F6iouu/RD23q+ST7q+O0w0PaNuLQH3LJnH+FhVTJdF8i1SfT7RKH8XPZsfqK0gz8c2oqW56JQycMPwt2fqZLsoHlihz+kU2ZGkjoq1jSjGdF4KV3DsSm3d88ZY6rULX2GuGTmuJ7FpByI1j4jxLnOIaV6UYo50T7r4o3lwFag10LSHbNXNmcp8bysStgt6bJ0oFdh2kycKQ/sD+ZWWnRnN2irmtWxVOkrzdjCry2K88UkGsZg7VjaBm6TPjZkOflW5Me/cY3zR7k8tBfGHB2q4+pBCx6tGlQaXRMzflk6WTbK7vZ/wAgvr3l5zPFyDmXdwtCVFfye88nj8XDESWhHdx4nxzi4knxd4Lyse1cgq7nuge4yAkBmWwDZmcyoOq9Dmn6DfvLNKvTi9GT2mpDCVqkVOMW0zPRV5xemOxZOf2WD6ygfjJOe512+GV5PyMy86xyxVFfUZo8n4iX0lxtPEsK1iFetrNYRNNxarDwGn9N4VQbmI3pBXjMs0jzkK9KNz3u/YhGt5Vs2D6A4zdMcuKuOHVdhMTSyS7IObIZxs+U95aVblDZamjqYbkd30qzv2L+ygo0cX0hv71qt3WdxBmleCIKsXr5S35By/KOyYHgtLAaEVOtm4gmSxO9oEliZ3ZSPy+TmGQ5FPhuF4bhFVlTD67IYW8I6ubnyP5XyPdwiTzkrOXJlJyd2ejp01TVkERFUyhERAEREAREQBERAEREAVRpNKYdH8feOM4fYj/eN3P+at1r+mRy0Zxs88UDelYjaiIe445WqyWnvjjc1uozWJeCRlnllsWX1Htezw+SRfcG/H2j/hMH8aul2sNhadSmpSW08tjsfVo1nCD2K3AqGYFceCRYrjI5bWyL11Au901+jIr2DsXe6/kpVs8yo5Gn8VxGfojXeoF3umv0ZE6gXe6a/RkWxInMqWQ+KYjP0RrvUC73TX6MidQLvdNboyrYkTmVLIj4piP1I13qBd7pr9GROt+73TW6Mi2JE5nSyJ+KYjP0RrvW/d7prdGROt+73TW6Mi2JE5lSyI+KYj9SNd637vdNboyJ1v3e6a3RkWxInMqWQ+KYjP0RrvUC73TX6MidQLvdNfoyLYkTmVLIfFMRn6I13qBd7pr9GROoF3umv0ZFsSJzKlkPimI/UjXet+73TW6Midb93umt0ZFsSJzKll6k/FMRn6I13rfu901ujInW/d7prdGRbEicypZEfFMR+pGu9b93umt0ZE6gXe6a/RkWxInMqWRPxTEZ+iNd6gXe6a/RkTqBd7pr9GRbEicypZD4piP1I13qBd7pr9GROoF3umv0ZFsSJzKlkPimI/UjXeoF3umv0ZE6gXe6a/RkWxInMqOQ+KYjP0RrvUC73TX6Mi+jR+3y2a/iZIVsKJzKjkPimIz9EUTNHh/aWz/lRAfK8rLiwPDY8i9s0x/xJCB5GZKyRZI4WlHdEwzx2Invk/b2I4oYIBqwxRRDmjaG+XJSEhoJJyAXxzg0Zk7FjPeXnbxDiCzpJbEaUpuTuw95ee8OILyNuQ518WNiFje9WRwOUkucUfOC7jPkVZzUIuT4FqVN1JqEd7Ka5JNduiOu0yPmlip02eue925s6Ttq30ehnUybnjFzPIa2UNfLPlyzCptAMJ39i8mIyNzr4U0FmY2OuTNyaB7kZn9pq60vMVJuUnJnvqFKMIKK3I0SP0NMIafTcUxJ45mCrH543KyraA6IQEGSrPaI5bdiV46DC1n8K2pFjuzPooxqlHD6Me50qlatHszbWiZEDlzhgCyURQWCIiAIiIAiIgCIiAIiIAiq7uP6PYcHb8xKrG4Egxtfus2Y/wAKLN/8K0zFvRFLmvhwWs9riCN93A3NvfjgGeZ8J8SmxVySMvTPSKxhGI4G3D5m76rCxNcicSY3wS6jWxSgeuyJHKMgeXbd4JpVg+NtYxkm97xHDqTuAkz4/SncTh4NveC4zNNPYllnsSPlmleZJZJHFz3vPGXErxzc4OYPKDzhWsY9N3P0Utf0ybraM44OaGJ3RnjcuZ4fpdpThwayO6Z4m5ARXhu4AHIHn0wdNWt3TyxiOGYhh1vDIQ63Xkh3WvM9rWOcBk7c3tPz1WxbTTRr+DH0+yP8Fh8jldLXKVplSZ73te4OYWZNIBzzBz2qwOMwcleTxvYPMF28LXpwpKMmeV5QwlWpXc6cbp2LqA9mPAVPtPEta6uTsz3KvEMxlnI5z/kbksafE8SsAtksPDDxxxelt8jFlljaa6O0w0+Sq8ulZGw3MSp02ua54ln5IYiHEe7dxBT17EFqMSwvDmHjHqmHmcOdaUvcUs0Lw+GR8bx6phyPgK1Y4+WleS2G/PkmGhaMv5Zm7otchx64zITRQyjnGcbvK3Z8izGY/TP4yCdh/RMcg+qt2OLpS42OXPk6vD6b9xboq4Y1hR45Jh4YXfyK9dWcJ9ml/cvWXX0+sjBzWt1X5GeirjjeFjidYd4IsvOVC/H6g7CtYf7p0bB8maq8RSX1Fo4KvLdFluvuRPEtekx+ycxDXgj5i8vkPyZBV82I4jYzbLZk1D6lh3NvkZksM8dTXR2m3T5KrS6bS9TZLmJUqQcHPEs3JDEczn/iOGwKto407Xc26QGucXNlaNjMznquA5OZUaLRljajlpLZ2HVhyXRjTcHtb4/0by0se1r2Oa5jtrXNILT4CF9WlwWrdU60Er2Z8YBzafC07FaRaQTtyFivHJ+lG4xu8m0Lcp42EunsOXW5Kqxf+N3XkzYEVUzHsPPZssMPuWuHyFS9WcJ9llHhhetpV6b+pGk8HXW+LLBFXOxvChxOnd7mLL5xWPJpBCPxNWRx55ntaPI3PzqksTTj9RaOBry3QfsXO1Yl3EKlEEPIkny4EDTtz55COIKhnxnEpgWtkELD6mAapy5i/s/lVctSrjtlqa8Tp4fknbeq/Bf2XtLGiXyNukBsjy5kjRwYs/Ulo25cyu2OZK0Pje17DxOYQ4fItHXuOaeB2tDI+N3Oxxb5clgo46UNk9psYjkqFR6VN6L9Dd0WsRY3iUeQeYph/iR6p6UeSzGaQM/tajvDFL/Jw/mt6OMpve7HKnyZXjuV+5/2XaKrbj2GnsmWW/sMd5nqQY1hJ/tZR4YX/wAlnVem/qRrvB119LLBFX9WcJ9llP8Akv8A5rw7HMMHYiy7/La3zvR16a+pBYSu/pZZr4XBo8w51SSaQgZiGp45pM/kYPrKrs4hetZ7rKQw/wBnHwGeDILBPGwj0dptUuS603/LYi4nxWqJ2xOcS0Ah0ke2ON3NkOPvlZTHskaHsc1zTxOaQR8i1Ne45ZYjrRSPYedpI8q1YY+Sf81sN6ryPBxWrlZ9vE2rjWv4jZNmxqwgyBhbBXYzaZHudq8EfpHiX3qne3N8bnMJe0t19XJ7QeYj7F7wS7Qw3E6t+7WktNqh8leKN7GgWDsZK7XB4tuXf2+pWPFYpVYqMDJyfyfKhNzqWvwOwaNYO3A8IpUTkZ8jPcePV2peE8+Adi3vNCuVon9JWE5bcNxDP3Vfz66gl9EusM9wwed3MZrMcfl1WO865lmeh0kjoSx7VupShksW54oIGdlJM8MaO9meM94Ll1v0Q9I5wW1o6dMHPJzIzNKP2pSWfwLVrd7EMQlE161YsSDY1073P1e8xp4I8QU6JVzXA3LSDTo25YquGNe3D47UElqZzS2a3FFK17o42nhBjstvKe9xO6XDNDYhhnge2SGZjZInsObXscMwQV+elsGA6V4tgWUMYbZol2sakxIDCTmTA8ZlvkI73KpaIjPbtO1ItWw/TnRi6GtlndSmJA1LrdVufelbnH5XBbJDPXssEteaKaN3E+F7ZGHwOaSFQyJpkqIiEhERAEREAWHbw3Db41bldk7cstSUuczok6vyLMRAUg0U0PHFgeGDwVo/sX3rV0R9pMM+LR/YrpEIsil61dEfaTDPi0f2J1q6I+0mGfFo/sV0iCyKXrV0R9pMM+LR/Yvh0V0SLXNGDYc3NpGba8YIzGWYICu0QWR+e2RGG1uErQTFM+CUO9c0lhz8asdwr+xR9EKfS6maOkWKtAIbYkZfizGWYsDdHEftaw8Sja4Pa144nNDvKutgtGSaaPPcp6UJRlF9h5FermM4Iss9vBCm3rT7ni6IXlTMObRzjYV0FTjkjizq1N+k/Mj3rT7ni6ITetPueLohTIp1UckY9fU6z8yHetPueLohN60+54uiFMiaqOSGvqdZ+ZDvWn3PF0Qm9afc8XRCmRNVHJDX1Os/Mh3rT7ni6ITetPueLohTImrjkhr6nWfmQ71p9zxdEJvWn3PF0QpkTVRyQ19TrPzId60+54uiE3rT7ni6IUyJqo5Ia+p1n5kO9afc8XRCb1p9zxdEKZE1UckNfU6z8yHetPueLohN60+54uiFMiaqOSGvqdZ+ZDvWn3PF0Qm9afc8XRCmRNVHJDX1Os/Mh3rT7ni6ITetPueLohTImqjkhr6nWfmQ71p9zxdEJvWn3PF0QpkTVRyQ19TrPzId60+54uiE3rT7ni6IUyJqo5Ia+p1n5kO9afc8XRCb1p9zxdEKZfC4N401cckNdU6z8yLetPueLohRugp8Ta8Ph1R8ikc8u7w5l5UaEckZI1KnGT8yLe9b2GLohN71vYYuiFKijVxyL66fWfmRb3rewxdEL4YarGuc6OMNaMzwQplW3rLTnGHZRx5mRx4nOb9iw1nClG9kbGGVWvPRUnbjtPNetZxO9WpUogJ7swigaBwY2ja6R2XIwcJy7DV0P0UrVq0D8Lp2HxRsY+exCx0szwMjI8nlPGqrQXR12HVji12PK/fjAhjeOFVqE6wYf037HP8AAB6lbsuFKV2eshBRRS9auiPtJhnxaP7E61dEfaTDPi0f2K6RVMlkUvWroj7SYZ8Wj+xOtXRH2kwz4tH9iukQWRS9auiPtJhnxaP7E61dEfaTDPi0f2K6RBZFL1q6I+0mG/Fo/sXuHRvRiu8SV8KpQSDbr14hE/yx5FW6ILI+ABoAHEAAOXYF9REJCIiAIiIAiIgCIiAIiIAiIgOe+iPhxdDhmKMbtie6lYI9ZJm+MnwHWH7a0mlJrRFh44zs9ydoXasVoRYph1/D5djbMLow4+oeOEx+zmIB8S4Y0TUbcsM7SySGR9eww+pc12q7yFbWGqaE02c7H0NbTaW/eWa9MdqnvHYV5Rd48k9pkIvDHZ7Dxji769qxgasEREICIiAIiIDJo0LuIzGGqxpLBrSyPOrFE3nc5WEeB17D5K9LG8MtXI2OfJXiOeTQcuyY53g7FYuJyy1NEaba5LRiWJTMvPbsLmMD9WIkch1R5FTaO48cAsW5d6tsx2oo45GboYnt3Jxc0teGu2bTmMvMuVWxc1NqO5HosNydSlSUp7WzOngnrSyQTsMcsZye13Jy5gjZkeRRq6xew7EMO0ZxWWJsNm/VldIxmeqGBwc3Vz25bdnhVKt+jU1kFI4uIpamq6eQREWY1wiIgCIiAIiIAiIgCLy57R3z3lE5zncfFzJcuotnt0g4m7e/yKMknaURVMiSQREQkIix7NkQjJu2QjYPWjnKpOagtKRkp05VZKEd54t2NzBiYfTCOGR6gc3hV/oTo0cVsMxW5H/VlObOtG8bLlqM9lkf7Nh8p9ztrNGtHbOkVx4drswyu8G/ZBIMjjt3vCfXO9UfUjvkLtFevBVhhr142RQQMbFDHGMmsY0ZAABcKtWdSV2eswuGjRhZEqIi1zeCIiAIiIAiIgCIiAIiIAiIgCIiAIiIAiIgCIiAIiIAuY+iDgjobDMcrs9JsmOC8GjYycDVjkOXI4bD3wPXrpyx7dWterWKllgkgsRuilYeVru/zjjClOxDV0cPpza7NzceGwbO+3/hZSx8Ywq5gGJSVJXFwad0qTEarbEBOQd4eRw51jb/AJuVkfyj+a61HFxULTPOYrk+bqOUNzLFStfrbDx+dVW/3+xs8pXrf7vYR0ythYulmacuTqz4eqLZFV9U5MvxLD3y5y8nFJvY4R4dc/zTnlLMx/DcRl6lsipXYtMdjZIG+ANJ/izXuI45cJFeDEJs+5q0pHljZl8qo8dTW5Myx5KrPpNIt3EMGby1o53kDzrHNumHtYJWkk5AtB1czyZr1X0S0ttkF1LcAeN9+dkeX7Ldd/8ACvlnR+bDLe4XZmyPjbFIDAHCJ7SMwQ5+3Lk8SpHFSqy0YIyVMBSoQ0qsn4L/AKXNG5R3tawvFIXS4dZcJPSvxteUf2kf/wB5c8jCzR/QuKQTT41ct12nWFRkG5ySDj1HyNaNnP2Kw0WaphYVJaTNWjyhVow0FuM7E8QdiM7HtjENeGNsFSBuWrFE3iGzZnz/APCwURbMIKCsjRnUdSTlLewiIrFAiIgCIvhIHGckB9RRmQcgz8y8FzjxnxBLl1FslL2jvnvKMvce8OYLyii5dRSCIigsEREARFh2LgbmyE8LiL+Qe5WOpUjTV5GajRnWlowRJYsiHNjcjLzcjfdd9S4DgGIaR23RxufHTieN/XSMwzl3OHPjkP8AD8hn0b0Xv6QyiZ5fXwljs5rQ2SWCDtjq58vO/k757Hr9KlSw6rDTpQshrwt1Y44xkB3zy5nlK4lavKq9p6jC4SNCOzzFCjSwyrXpUomxVoGhsbW8Z53OJ2knjJWWiLWOgEREAREQBERAEREAREQBERAEREAREQBERAEREAREQBERAEREBS6Q4FVx+g+s8iOzGTJTsZZmKXLLI5bdU8Th/MbORwl+BYjPWxTDYJxE4R261mJjzq8YkrvePGw8R83dlr2kmjVPH6wILYcQgB3payPPnuUwG0sPycY5nWTKSjcpauFaIX4I7dXDsPkglGx7YQ0g8rXAbQRyhSdbmjPtTT6DvtWi17OOaL4hNDJE6OVpaLVWYkwTs5HNI2e5cP8AhdAwvFsOxaDdar8pGgGatIQJoT+kOUcxH/Csask0RDR7RocWE0fHHn51PHhGAxHNmFYb46kJ84WaiFbskgZQiyEdSvD+qgiYP4QssPDhsdmO8f5LARSLmeqTSTDjbqCzE3OemHOIA2vgO1zfFxjxrPEkg4nHz+dehPKOUHwhXpzdOSkjHVpxqwcJcTmyK0x3D3UpjZhYN52HEgDPKGU7Sw94+p8nIqbdDzDyrvwqRnFSR5KpRnTk4yJUUW6HmCbo7vK9ymgyVFDrvPL5F5zJ4yVFydBk5c0cZC8mQcgJ+RRIlydBHovce94F5RFBe1giIgCIiAIi+HIAlxAA4yTkEJ3n1eZHxxN1nuybyDlPgCxZbrW5thGsfXuHB8QX3DMJxrH5yyhC6XVdqzWZs2VYPdy5bT3gCVo1sXGOyO1nTw/J06m2exepjWLj5BqNzZG4hoaMy+QnYBs2+Jblo5oJPaMV3Ho3w1tjosPzIlm5QbRb2Lf0PLl2J2fR/Q3CcD3OxLncxPLbZlaA2InjFePiaO/x9/kW0rlTqSm7tnoaNCNKOjFHiOOKKNkUTGsjjaGsYwBrWtAyAaBsyXtEWI2QiIgCIiAIiIAiIgCIiAIiIAiIgCIiAIiIAiIgCIiAIiIAiIgCIiAIiICoxvAsLx2vuFyPKVgJrWY8mz13HlY7m5wdh83KcVwTH9F7Uc5c8Rtf+C4hU1gw58THn1J5wdh767ao5Y4po5IpY2SRSNLXskaHMc08Yc12xSnYrKKZzTCdMa8wZBi4EEuwC3G07g/vysG0HvjZ4FtjXMexkjHsfG8ZxvjcHRuHOHN2Kixr0PK8u6WMDkbXec3GnOSa7jzRSbXN8G0eBaa2bSbRmwYXtsUnOdtinaH1p8uVvHEfCCr3ua8qdjqCLU6OmtKTVZiNZ9d/EZq2csJ75YfTB8q2WrcoX2h1K3Xsd6F4Lx4Yzk/5FJiaaJ0REIPEsUM8ckMzA+KRpa9ruIj/AO4lpGK4TPhsmsNaSm92rFLytz9RJly+db0vL2RysfHIxr43gtex4za4HkIKz0azpPsNbEYeNZbd5zVFf4no9LBrzUA+aDaXQ8c0Y/Q5x8vhVBzjlByIPGDzFdinUjUV4nn6lKdJ6M0ERFkMQREQBERCQi8OlgZ2UjR3icz5AoH3oR2DXPPOeCPtWKVaEN7M1PD1anRizKXl72RjN7ms90dviHGqyW9NsGu2MO2BrMg494Z7VaYdovpTixa+ChJFC/I74xAmvHkeUNe0ynoLUnjYroo6NLkuUvmO3cYkl5ozETdb9J/F4go6tXFsYnMFGvPclacniIZRRZ+ySHKNvlXQsL9DnC4NSTFrMt+UZEwx61eoDzFrDuh8b/Et1r1qlSFkFWCGCBgyZFBG2ONvgawZLQqYidTezsUMHTo7l/ZoeDeh1C3Unx6cTu2O3lVc9lccuU0ux7v4R4Vv0FevWiigrwxQwxDVjiha1kbBzBrdilRa9zdSS3BERQSEREAREQBERAEREAREQBERAEREAREQBERAEREAREQBERAEREAREQBERAEREAREQBQ2KtS3E+C1BFPC/s45mNew+FrhkpkQGkYl6HeC2NaTDZpqEhzO57bFbP3Eh1x4n+Jahe0J0toOL46zLbG7RLh8ucg/ypNSTyZrsyKbsq4pnDWY9pThTtxmtXIi3ZuOJxOd4tWy3W+VWkGnOJsy3xRpzDlMZlhd8hI+RdalhrzsMc8UcrDxtlY17T4Q4ZKls6IaI2i4vwmqxx9VWD6x/wD5y1TpGN0jT49OcOOW7YbbYeUxTRSD+IMWUzTLR13ZdUI/dV2u+ZIrGb0OdGX5mKbEoDyBlhsgH79jz8qwX+hlVP4rGbbf1leB/wA3VU6SK6o9jS3Rc/8AVWB4ak38lX38T0Gv5yPszx2DxTQ1Jg536wFuR/8Atqnd6GcnqccH7VD7J15HoZTcuOM8VA/76tGo4u8WY54dTVpK5qs1qhG9zYrBmZ6mRsMkYPha/aozer8glP7IH81uLfQyHqsdkPuKTR86YqdnoZ4cMt1xfEH/AKuOszzsctrnszT+GUsn5miG/HyRP8bgPMvBvv8AUxMHuiSukx+hzow3LdJsTl59ey1gP7ljVYQ6EaGRZf1WyUjlszWJvKJXlvyKjxdR8TJHk2iuHucfkxCXPIyxMJ5Bqg/LtU0FLHcRy3tQxKyD6pkE259NwDPlXca2FYPTyNTDqMBHEYK8MZ8rRmszbzrDKtOW9m1DDU4dFJeBx6poHpbZ2yw1KTDt1rU7Xv8A3dcP+eFsdL0NcPbk7EcStWDsJjqsZVjz5i468n8YW/osWkzPoIq8O0f0ewoh1DDq0MnsuprznwyyZyfKrREUFwiIgCIiAIiIAiIgCIiAIiIAiIgCIiAIiIAiIgCIiAIiIAiIgCIiAIiIAiIgCIiAIiIAiIgCIiAIiIAiIgCIiAIiIAiIgCIiAIiIAiIgCIiAIiIAiIgCIiAIiIAiIgCIiAIiIAiIgCIiAIiIAiIgCIiAIiID/9k=;" vertex="1" parent="1">
                    <mxGeometry x="1570" y="1156" width="76.79" height="43" as="geometry"/>
                </mxCell>
                <mxCell id="232" value="" style="rounded=0;whiteSpace=wrap;html=1;fillColor=#e1d5e7;strokeColor=#9673a6;" vertex="1" parent="1">
                    <mxGeometry x="1492" y="235" width="574" height="100" as="geometry"/>
                </mxCell>
                <mxCell id="233" value="&lt;font style=&quot;font-size: 34px;&quot;&gt;&lt;b style=&quot;&quot;&gt;DATAFLOW ARCHITECTURE&lt;/b&gt;&lt;/font&gt;" style="text;html=1;align=center;verticalAlign=middle;whiteSpace=wrap;rounded=0;labelBackgroundColor=default;" vertex="1" parent="1">
                    <mxGeometry x="1534" y="213" width="480" height="150" as="geometry"/>
                </mxCell>
            </root>
        </mxGraphModel>
    </diagram>
</mxfile>